<svg width="290" height="265" viewBox="0 0 290 265" fill="none" xmlns="http://www.w3.org/2000/svg">
<g filter="url(#filter0_d_1246_1780)">
<path d="M129.49 244.35C93.94 244.35 58.3901 244.5 22.7903 244.2C16.4903 244.15 9.94034 240.1 6.74036 232.3C5.89036 230.2 5.44036 228.1 5.44036 225.75C5.54036 190.05 5.54036 154.4 5.44036 118.7C5.44036 113.45 5.19036 108.4 8.49035 103.9C12.2903 98.7 16.9403 95.2 23.5903 95.05C28.5403 94.95 33.5402 94.8 38.4902 95.05C41.9402 95.25 43.0402 94.35 42.9902 90.75C42.7902 74.25 42.9902 57.7499 42.8402 41.2499C42.7902 34.2999 44.7402 28.5499 50.3402 24.0999C53.0402 21.9999 56.0401 21.1999 59.1901 20.6999C60.7401 20.4499 62.3401 20.4999 63.8901 20.4999C98.69 20.4499 133.39 20.4999 168.09 20.3999C173.49 20.3999 177.59 21.7499 181.49 25.8999C191.89 36.8999 202.89 47.3999 213.589 58.1499C215.789 60.3499 216.939 63.05 216.889 66.25C216.789 74.75 216.939 83.25 216.839 91.75C216.839 94.2 217.439 95.05 220.089 95.1C226.489 95.2 232.889 94.55 239.289 95.7C246.689 97 253.289 104.25 253.789 112.2C254.739 126.6 254.189 141.05 254.239 155.45C254.339 178.05 254.289 200.6 254.239 223.2C254.239 233.8 249.089 240.8 239.339 243.95C238.389 244.25 237.489 244.4 236.539 244.4C200.84 244.4 165.19 244.4 129.49 244.4V244.35ZM166.19 32.9499C131.74 32.9499 97.29 32.9499 62.7901 32.8499C57.6901 32.8499 55.2402 35.8999 55.2902 40.7499C55.4402 65.85 55.3902 91 55.2902 116.1C55.2902 118.95 56.5901 120.15 58.7401 121.35C67.5401 126.35 76.2901 131.4 85.04 136.5C99.69 145 114.34 153.55 128.99 162.15C129.99 162.75 130.24 162.5 131.04 162C142.39 155.25 153.74 148.5 165.19 141.85C177.44 134.7 189.74 127.6 202.04 120.6C203.84 119.55 204.54 118.3 204.54 116.25C204.49 101.95 204.49 87.6 204.54 73.3C204.54 70.95 203.89 70.15 201.49 70.2C194.19 70.35 186.94 70.25 179.64 70.2C172.94 70.2 167.24 64.5 167.19 57.8499C167.14 49.5999 167.04 41.3499 166.94 33.0999C166.99 32.8499 167.09 32.5999 167.14 32.3499C166.84 32.5499 166.54 32.7499 166.24 32.9999L166.19 32.9499ZM129.14 231.85C163.24 231.85 197.34 231.85 231.439 231.85C232.639 231.85 233.889 232 235.089 231.75C237.989 231.25 240.339 229.9 241.339 226.9C242.239 224.2 241.639 222.1 239.389 220.05C233.539 214.55 227.739 209 222.439 203.05C218.039 198.05 213.339 193.25 208.489 188.75C196.84 177.95 185.64 166.75 174.84 155.1C172.99 153.15 171.74 152.4 169.14 153.95C157.79 160.75 146.24 167.15 134.89 173.95C131.29 176.1 128.29 176 124.74 173.9C113.39 167.15 101.84 160.65 90.44 153.9C88.24 152.6 86.99 152.8 85.19 154.6C73.0401 166.45 61.2901 178.7 48.9402 190.4C38.7402 200.05 29.1903 210.4 19.2903 220.45C18.0903 221.65 17.5403 222.9 17.5903 224.65C17.7403 229.4 20.4903 231.9 25.6403 231.9C60.0901 231.9 94.59 231.9 129.04 231.9L129.14 231.85ZM241.839 158.45C241.839 144.25 241.839 130.1 241.839 115.9C241.839 112.85 241.139 112.3 238.389 113.9C221.039 124.05 203.59 134.1 186.19 144.2C182.99 146.05 183.04 146.6 186.04 149C187.09 149.8 188.04 150.75 188.99 151.7C205.54 168.2 222.039 184.75 238.539 201.25C239.289 202 239.939 203.35 241.089 202.9C242.289 202.4 241.739 200.95 241.739 199.95C241.739 186.15 241.739 172.3 241.739 158.5L241.839 158.45ZM17.9403 203.8C18.8403 203.25 19.1903 203.15 19.4403 202.9C37.7402 184.6 55.9901 166.3 74.2901 148.1C76.5901 145.8 75.1901 145.1 73.3401 144C56.1901 134.1 39.0902 124.2 21.9903 114.3C18.0403 112 17.9403 112.05 17.9403 116.6C17.9403 144.5 17.9403 172.45 17.9403 200.35C17.9403 201.3 17.9403 202.25 17.9403 203.8ZM179.59 42.8999C179.59 47.0999 179.59 51.3999 179.59 55.6999C179.59 56.7499 179.94 57.6999 181.19 57.6999C185.69 57.6999 190.19 57.6999 194.39 57.6999C189.34 52.6499 184.54 47.8499 179.54 42.8999H179.59ZM36.3902 107.75C38.2902 109.35 40.2402 110.95 42.8402 111.55C43.0402 106 39.2402 107.65 36.3902 107.75ZM222.989 107.45C221.139 107.45 219.689 107.45 218.239 107.45C216.439 107.45 216.389 108.7 216.639 109.95C216.939 111.35 218.039 111.15 218.889 110.7C220.339 110 221.989 109.4 222.939 107.4L222.989 107.45Z" fill="#ED5B55"/>
</g>
<g filter="url(#filter1_d_1246_1780)">
<path d="M149.052 109.08C149.052 112.013 148.278 114.733 146.732 117.24C145.238 119.693 142.998 121.72 140.012 123.32C137.078 124.867 133.585 125.72 129.532 125.88V132.36H124.412V125.8C118.758 125.32 114.198 123.64 110.732 120.76C107.265 117.827 105.425 113.853 105.212 108.84H119.772C120.092 112.04 121.638 114.093 124.412 115V102.36C120.252 101.293 116.918 100.253 114.412 99.24C111.958 98.2266 109.798 96.6 107.932 94.36C106.065 92.12 105.132 89.0533 105.132 85.1599C105.132 80.3066 106.918 76.4133 110.492 73.4799C114.118 70.5466 118.758 68.8933 124.412 68.5199V62.0399H129.532V68.5199C135.132 68.9466 139.558 70.5733 142.812 73.3999C146.065 76.2266 147.878 80.1466 148.252 85.1599H133.612C133.292 82.2799 131.932 80.4133 129.532 79.5599V91.96C133.958 93.1866 137.372 94.28 139.772 95.24C142.172 96.2 144.305 97.8 146.172 100.04C148.092 102.227 149.052 105.24 149.052 109.08ZM119.612 84.5199C119.612 85.8533 120.012 86.9733 120.812 87.88C121.665 88.7866 122.865 89.5866 124.412 90.28V79.1599C122.918 79.4266 121.745 80.0133 120.892 80.9199C120.038 81.7733 119.612 82.9733 119.612 84.5199ZM129.532 115.24C131.132 114.973 132.385 114.333 133.292 113.32C134.252 112.307 134.732 111.053 134.732 109.56C134.732 108.173 134.278 107.053 133.372 106.2C132.518 105.293 131.238 104.52 129.532 103.88V115.24Z" fill="#ED5B55"/>
</g>
<defs>
<filter id="filter0_d_1246_1780" x="0.436044" y="0.399935" width="288.917" height="264" filterUnits="userSpaceOnUse" color-interpolation-filters="sRGB">
<feFlood flood-opacity="0" result="BackgroundImageFix"/>
<feColorMatrix in="SourceAlpha" type="matrix" values="0 0 0 0 0 0 0 0 0 0 0 0 0 0 0 0 0 0 127 0" result="hardAlpha"/>
<feOffset dx="15"/>
<feGaussianBlur stdDeviation="9.99998"/>
<feComposite in2="hardAlpha" operator="out"/>
<feColorMatrix type="matrix" values="0 0 0 0 0.929412 0 0 0 0 0.356863 0 0 0 0 0.333333 0 0 0 0.5 0"/>
<feBlend mode="normal" in2="BackgroundImageFix" result="effect1_dropShadow_1246_1780"/>
<feBlend mode="normal" in="SourceGraphic" in2="effect1_dropShadow_1246_1780" result="shape"/>
</filter>
<filter id="filter1_d_1246_1780" x="90.1319" y="42.0399" width="83.9199" height="110.32" filterUnits="userSpaceOnUse" color-interpolation-filters="sRGB">
<feFlood flood-opacity="0" result="BackgroundImageFix"/>
<feColorMatrix in="SourceAlpha" type="matrix" values="0 0 0 0 0 0 0 0 0 0 0 0 0 0 0 0 0 0 127 0" result="hardAlpha"/>
<feOffset dx="4.99999"/>
<feGaussianBlur stdDeviation="9.99998"/>
<feComposite in2="hardAlpha" operator="out"/>
<feColorMatrix type="matrix" values="0 0 0 0 0.929412 0 0 0 0 0.356863 0 0 0 0 0.333333 0 0 0 0.5 0"/>
<feBlend mode="normal" in2="BackgroundImageFix" result="effect1_dropShadow_1246_1780"/>
<feBlend mode="normal" in="SourceGraphic" in2="effect1_dropShadow_1246_1780" result="shape"/>
</filter>
</defs>
</svg>
