<svg width="1316" height="2564" viewBox="0 0 1316 2564" fill="none" xmlns="http://www.w3.org/2000/svg">
<g clip-path="url(#clip0_1246_1658)">
<path d="M1139.22 0H177.109C84.1722 0 8.83203 75.1145 8.83203 167.773V2396.23C8.83203 2488.89 84.1722 2564 177.109 2564H1139.22C1232.16 2564 1307.5 2488.89 1307.5 2396.23V167.773C1307.5 75.1145 1232.16 0 1139.22 0Z" fill="#455A64"/>
<path d="M1287.05 2396.43L1287.05 167.574C1287.05 86.288 1220.95 20.3923 1139.42 20.3923L176.909 20.3923C95.3788 20.3923 29.2854 86.288 29.2854 167.574L29.2854 2396.43C29.2854 2477.71 95.3788 2543.61 176.909 2543.61H1139.42C1220.95 2543.61 1287.05 2477.71 1287.05 2396.43Z" fill="#263238"/>
<path d="M564.863 101.233C556.894 101.233 550.386 94.7447 550.386 86.8658C550.386 78.987 556.894 72.4985 564.863 72.4985H750.605C758.574 72.4985 765.016 78.987 765.016 86.8658C765.016 94.7447 758.508 101.233 750.605 101.233H564.863Z" fill="#455A64"/>
<path d="M465.318 101.233C457.349 101.233 450.908 94.7447 450.908 86.8658C450.908 78.987 457.416 72.4985 465.318 72.4985C473.221 72.4985 479.729 78.987 479.729 86.8658C479.729 94.7447 473.221 101.233 465.318 101.233Z" fill="#455A64"/>
<path d="M518.444 101.233C510.475 101.233 504.034 94.7447 504.034 86.8658C504.034 78.987 510.542 72.4985 518.444 72.4985C526.347 72.4985 532.855 78.987 532.855 86.8658C532.855 94.7447 526.347 101.233 518.444 101.233Z" fill="#455A64"/>
<path d="M851.014 101.233C843.045 101.233 836.604 94.7447 836.604 86.8658C836.604 78.987 843.111 72.4985 851.014 72.4985C858.916 72.4985 865.424 78.987 865.424 86.8658C865.424 94.7447 858.916 101.233 851.014 101.233Z" fill="#455A64"/>
<path d="M797.887 101.233C789.919 101.233 783.477 94.7447 783.477 86.8658C783.477 78.987 789.985 72.4985 797.887 72.4985C805.79 72.4985 812.298 78.987 812.298 86.8658C812.298 94.7447 805.79 101.233 797.887 101.233Z" fill="#455A64"/>
<path d="M1146.2 34.9583H963.84C934.953 34.9583 909.585 53.9602 901.55 81.6354L898.429 92.2288C889.796 121.824 862.635 142.15 831.755 142.15H484.643C453.763 142.15 426.536 121.824 417.969 92.2288L414.848 81.6354C406.813 53.9602 381.379 34.9583 352.558 34.9583H187.07C116.147 34.9583 58.6377 92.295 58.6377 163.006V2386.3C58.6377 2452.84 112.76 2506.8 179.5 2506.8H1148.45C1208.88 2506.8 1257.83 2457.93 1257.83 2397.75V146.255C1257.83 84.8134 1207.89 35.0245 1146.26 35.0245L1146.2 34.9583Z" fill="white"/>
<path d="M1308.89 851.974H1307.43V557.279H1308.89C1312.81 557.279 1316 560.457 1316 564.364V844.956C1316 848.863 1312.81 852.041 1308.89 852.041V851.974Z" fill="#455A64"/>
<path d="M7.10562 738.889H8.83222V925.466H7.10562C3.18757 925.466 0 922.288 0 918.381V745.908C0 742.001 3.18757 738.823 7.10562 738.823V738.889Z" fill="#455A64"/>
<path d="M7.10562 495.175H8.83222V681.752H7.10562C3.18757 681.752 0 678.573 0 674.667V502.193C0 498.287 3.18757 495.109 7.10562 495.109V495.175Z" fill="#455A64"/>
<path d="M7.50404 312.174H8.83219V398.908H7.50404C4.05084 398.908 1.19531 396.127 1.19531 392.618V318.398C1.19531 314.955 3.98443 312.108 7.50404 312.108V312.174Z" fill="#455A64"/>
<path d="M975.528 121.096H966.63V133.543H975.528V121.096Z" fill="#263238"/>
<path d="M990.071 115.601H981.173V133.609H990.071V115.601Z" fill="#263238"/>
<path d="M1004.62 111.429H995.717V133.609H1004.62V111.429Z" fill="#263238"/>
<path d="M1019.09 103.352H1010.19V133.609H1019.09V103.352Z" fill="#263238"/>
<path d="M1150.84 134.205H1106.09C1104.29 134.205 1102.9 132.749 1102.9 131.027V108.847C1102.9 107.06 1104.36 105.669 1106.09 105.669H1150.91C1150.91 105.669 1151.31 105.735 1151.51 105.934C1151.64 106.066 1151.77 106.265 1151.77 106.53V113.813H1156.56C1157.02 113.813 1157.35 114.21 1157.35 114.607V125.267C1157.35 125.73 1156.95 126.061 1156.56 126.061H1151.77V133.344C1151.77 133.808 1151.44 134.139 1150.98 134.139L1150.84 134.205ZM1150.05 107.258H1106.09C1105.22 107.258 1104.56 107.92 1104.56 108.847V131.027C1104.56 131.888 1105.29 132.616 1106.15 132.616H1150.11V125.333C1150.11 124.87 1150.45 124.539 1150.91 124.539H1155.69V115.468H1150.91C1150.45 115.468 1150.11 115.071 1150.11 114.674V107.391L1150.05 107.258Z" fill="#263238"/>
<path d="M1108.14 128.908V110.9H1146.33V119.043V120.831V128.908H1108.14Z" fill="#263238"/>
<path d="M1061.79 132.484C1061.79 130.696 1060.33 129.24 1058.54 129.24C1056.74 129.24 1055.28 130.696 1055.28 132.484C1055.28 134.271 1056.74 135.728 1058.54 135.728C1060.33 135.728 1061.79 134.271 1061.79 132.484Z" fill="#263238"/>
<path d="M1047.38 124.671L1051.56 128.842C1053.36 127.055 1055.81 125.929 1058.54 125.929C1061.26 125.929 1063.72 127.055 1065.51 128.842L1069.69 124.671C1066.84 121.824 1062.92 120.036 1058.54 120.036C1054.15 120.036 1050.24 121.824 1047.38 124.671Z" fill="#263238"/>
<path d="M1058.54 110.767C1051.63 110.767 1045.32 113.548 1040.81 118.116L1044.99 122.288C1048.44 118.845 1053.29 116.66 1058.54 116.66C1063.78 116.66 1068.63 118.778 1072.08 122.288L1076.27 118.116C1071.75 113.614 1065.44 110.767 1058.54 110.767Z" fill="#263238"/>
<path d="M1034.03 111.297L1038.22 115.468C1043.46 110.238 1050.64 107.06 1058.6 107.06C1066.57 107.06 1073.74 110.304 1078.99 115.468L1083.17 111.297C1076.87 105.007 1068.23 101.167 1058.67 101.167C1049.11 101.167 1040.41 105.073 1034.17 111.297H1034.03Z" fill="#263238"/>
<path d="M1189.69 1719.9H117.475V1995.86H1189.69V1719.9Z" fill="#E0E0E0"/>
<path d="M200.883 1845.37H183.219V1834.98H231.231V1845.37H213.567V1890H200.817V1845.37H200.883Z" fill="#263238"/>
<path d="M248.564 1887.21C243.982 1884.76 240.396 1881.39 237.806 1877.02C235.216 1872.71 233.888 1867.82 233.888 1862.45C233.888 1857.09 235.216 1852.19 237.806 1847.89C240.396 1843.58 243.982 1840.21 248.564 1837.69C253.146 1835.24 258.326 1833.98 264.037 1833.98C269.748 1833.98 274.928 1835.24 279.51 1837.69C284.092 1840.14 287.678 1843.52 290.268 1847.89C292.924 1852.19 294.186 1857.09 294.186 1862.45C294.186 1867.82 292.858 1872.71 290.268 1877.02C287.611 1881.32 284.025 1884.7 279.51 1887.21C274.928 1889.66 269.814 1890.92 264.037 1890.92C258.259 1890.92 253.146 1889.66 248.564 1887.21ZM272.869 1877.81C275.525 1876.29 277.584 1874.24 279.045 1871.59C280.506 1868.94 281.303 1865.89 281.303 1862.45C281.303 1859.01 280.572 1856.03 279.045 1853.32C277.518 1850.67 275.459 1848.55 272.869 1847.09C270.279 1845.64 267.291 1844.84 264.037 1844.84C260.783 1844.84 257.861 1845.57 255.205 1847.09C252.548 1848.61 250.49 1850.67 249.029 1853.32C247.501 1855.96 246.771 1859.01 246.771 1862.45C246.771 1865.89 247.501 1868.87 249.029 1871.59C250.49 1874.24 252.615 1876.36 255.205 1877.81C257.861 1879.27 260.783 1880.06 264.037 1880.06C267.291 1880.06 270.213 1879.34 272.869 1877.81Z" fill="#263238"/>
<path d="M314.44 1845.37H296.776V1834.98H344.789V1845.37H327.124V1890H314.374V1845.37H314.44Z" fill="#263238"/>
<path d="M385.231 1878.21H359.664L354.75 1889.99H341.667L366.238 1835.04H378.856L403.493 1889.99H390.079L385.164 1878.21H385.231ZM381.18 1868.54L372.414 1847.49L363.648 1868.54H381.114H381.18Z" fill="#263238"/>
<path d="M409.271 1835.04H422.021V1879.67H449.646V1890.06H409.271V1835.11V1835.04Z" fill="#263238"/>
<path d="M456.752 1860.2C455.291 1858.74 454.561 1856.89 454.561 1854.71C454.561 1852.52 455.291 1850.6 456.752 1849.28C458.213 1847.89 460.006 1847.22 462.197 1847.22C464.389 1847.22 466.182 1847.89 467.643 1849.28C469.104 1850.67 469.834 1852.45 469.834 1854.71C469.834 1856.96 469.104 1858.74 467.643 1860.2C466.182 1861.66 464.389 1862.39 462.197 1862.39C460.006 1862.39 458.213 1861.66 456.752 1860.2ZM456.752 1888.41C455.291 1886.95 454.561 1885.1 454.561 1882.91C454.561 1880.73 455.291 1878.87 456.752 1877.48C458.213 1876.09 460.006 1875.43 462.197 1875.43C464.389 1875.43 466.182 1876.09 467.643 1877.48C469.104 1878.87 469.834 1880.66 469.834 1882.91C469.834 1885.16 469.104 1886.95 467.643 1888.41C466.182 1889.86 464.389 1890.59 462.197 1890.59C460.006 1890.59 458.213 1889.86 456.752 1888.41Z" fill="#263238"/>
<path d="M993.325 1880.73C990.204 1883.77 985.622 1885.69 979.712 1886.42V1895.23H971.809V1886.68C967.957 1886.49 964.239 1885.82 960.719 1884.63C957.199 1883.51 954.344 1882.05 952.219 1880.39L956.535 1870.79C958.527 1872.25 960.852 1873.51 963.574 1874.5C966.297 1875.5 969.02 1876.16 971.875 1876.42V1863.31C968.157 1862.45 964.969 1861.46 962.445 1860.33C959.856 1859.21 957.731 1857.62 956.004 1855.5C954.277 1853.38 953.414 1850.53 953.414 1847.03C953.414 1842.66 955.008 1838.95 958.195 1835.84C961.383 1832.72 965.965 1830.8 971.942 1830.14V1821.4H979.844V1829.94C986.286 1830.47 991.599 1832.06 995.849 1834.71L991.93 1844.38C988.012 1842.13 983.962 1840.74 979.911 1840.27V1853.65C983.563 1854.51 986.684 1855.43 989.274 1856.49C991.798 1857.55 993.989 1859.14 995.716 1861.26C997.442 1863.38 998.306 1866.16 998.306 1869.6C998.306 1873.91 996.712 1877.55 993.591 1880.66L993.325 1880.73ZM967.493 1849.61C968.489 1850.47 969.95 1851.13 971.809 1851.73V1840.6C969.817 1841.07 968.356 1841.79 967.426 1842.85C966.496 1843.85 966.032 1845.04 966.032 1846.43C966.032 1847.82 966.563 1848.81 967.559 1849.67L967.493 1849.61ZM983.962 1874.04C984.891 1873.11 985.356 1871.99 985.356 1870.66C985.356 1869.34 984.891 1868.28 983.895 1867.42C982.899 1866.56 981.505 1865.83 979.712 1865.23V1876.09C981.571 1875.69 983.032 1874.97 983.962 1874.04Z" fill="#263238"/>
<path d="M1043.53 1880.73C1040.41 1883.77 1035.83 1885.69 1029.92 1886.42V1895.23H1022.01V1886.68C1018.16 1886.49 1014.44 1885.82 1010.92 1884.63C1007.4 1883.51 1004.55 1882.05 1002.42 1880.39L1006.74 1870.79C1008.73 1872.25 1011.06 1873.51 1013.78 1874.5C1016.5 1875.5 1019.22 1876.16 1022.08 1876.42V1863.31C1018.36 1862.45 1015.17 1861.46 1012.65 1860.33C1010.06 1859.21 1007.93 1857.62 1006.21 1855.5C1004.48 1853.38 1003.62 1850.53 1003.62 1847.03C1003.62 1842.66 1005.21 1838.95 1008.4 1835.84C1011.59 1832.72 1016.17 1830.8 1022.15 1830.14V1821.4H1030.05V1829.94C1036.49 1830.47 1041.8 1832.06 1046.05 1834.71L1042.13 1844.38C1038.22 1842.13 1034.17 1840.74 1030.11 1840.27V1853.65C1033.77 1854.51 1036.89 1855.43 1039.48 1856.49C1042 1857.55 1044.19 1859.14 1045.92 1861.26C1047.65 1863.38 1048.51 1866.16 1048.51 1869.6C1048.51 1873.91 1046.92 1877.55 1043.79 1880.66L1043.53 1880.73ZM1017.7 1849.61C1018.69 1850.47 1020.15 1851.13 1022.01 1851.73V1840.6C1020.02 1841.07 1018.56 1841.79 1017.63 1842.85C1016.7 1843.85 1016.24 1845.04 1016.24 1846.43C1016.24 1847.82 1016.77 1848.81 1017.76 1849.67L1017.7 1849.61ZM1034.17 1874.04C1035.1 1873.11 1035.56 1871.99 1035.56 1870.66C1035.56 1869.34 1035.1 1868.28 1034.1 1867.42C1033.1 1866.56 1031.71 1865.83 1029.92 1865.23V1876.09C1031.78 1875.69 1033.24 1874.97 1034.17 1874.04Z" fill="#263238"/>
<path d="M1093.8 1880.73C1090.68 1883.77 1086.1 1885.69 1080.19 1886.42V1895.23H1072.28V1886.68C1068.43 1886.49 1064.71 1885.82 1061.19 1884.63C1057.67 1883.51 1054.82 1882.05 1052.69 1880.39L1057.01 1870.79C1059 1872.25 1061.33 1873.51 1064.05 1874.5C1066.77 1875.5 1069.49 1876.16 1072.35 1876.42V1863.31C1068.63 1862.45 1065.44 1861.46 1062.92 1860.33C1060.33 1859.21 1058.21 1857.62 1056.48 1855.5C1054.75 1853.38 1053.89 1850.53 1053.89 1847.03C1053.89 1842.66 1055.48 1838.95 1058.67 1835.84C1061.86 1832.72 1066.44 1830.8 1072.42 1830.14V1821.4H1080.32V1829.94C1086.76 1830.47 1092.07 1832.06 1096.32 1834.71L1092.41 1844.38C1088.49 1842.13 1084.44 1840.74 1080.39 1840.27V1853.65C1084.04 1854.51 1087.16 1855.43 1089.75 1856.49C1092.27 1857.55 1094.46 1859.14 1096.19 1861.26C1097.92 1863.38 1098.78 1866.16 1098.78 1869.6C1098.78 1873.91 1097.19 1877.55 1094.07 1880.66L1093.8 1880.73ZM1067.97 1849.61C1068.96 1850.47 1070.42 1851.13 1072.28 1851.73V1840.6C1070.29 1841.07 1068.83 1841.79 1067.9 1842.85C1066.97 1843.85 1066.51 1845.04 1066.51 1846.43C1066.51 1847.82 1067.04 1848.81 1068.03 1849.67L1067.97 1849.61ZM1084.44 1874.04C1085.37 1873.11 1085.83 1871.99 1085.83 1870.66C1085.83 1869.34 1085.37 1868.28 1084.37 1867.42C1083.37 1866.56 1081.98 1865.83 1080.19 1865.23V1876.09C1082.05 1875.69 1083.51 1874.97 1084.44 1874.04Z" fill="#263238"/>
<path d="M1195.07 408.707C1195.07 409.633 948.567 410.428 644.619 410.428C340.671 410.428 94.0996 409.633 94.0996 408.707C94.0996 407.78 340.538 406.985 644.619 406.985C948.699 406.985 1195.07 407.78 1195.07 408.707Z" fill="#263238"/>
<path d="M970.348 2348.76H345.187C273.068 2348.76 214.563 2290.49 214.563 2218.52C214.563 2146.62 273.002 2088.29 345.187 2088.29H970.348C1042.47 2088.29 1100.97 2146.55 1100.97 2218.52C1100.97 2290.43 1042.53 2348.76 970.348 2348.76Z" fill="#ED5B55"/>
<path d="M513.198 2254.01C508.616 2251.56 505.03 2248.18 502.44 2243.81C499.85 2239.44 498.522 2234.61 498.522 2229.25C498.522 2223.89 499.85 2218.99 502.44 2214.68C505.03 2210.38 508.616 2207 513.198 2204.49C517.78 2202.04 522.96 2200.78 528.671 2200.78C534.382 2200.78 539.562 2202.04 544.144 2204.49C548.726 2206.94 552.312 2210.31 554.902 2214.68C557.558 2218.99 558.82 2223.89 558.82 2229.25C558.82 2234.61 557.492 2239.51 554.902 2243.81C552.246 2248.12 548.66 2251.49 544.144 2254.01C539.562 2256.46 534.449 2257.72 528.671 2257.72C522.894 2257.72 517.78 2256.46 513.198 2254.01ZM537.503 2244.61C540.16 2243.09 542.218 2241.03 543.679 2238.39C545.14 2235.74 545.937 2232.69 545.937 2229.25C545.937 2225.81 545.207 2222.83 543.679 2220.11C542.152 2217.46 540.093 2215.34 537.503 2213.89C534.847 2212.37 531.925 2211.64 528.671 2211.64C525.417 2211.64 522.495 2212.37 519.839 2213.89C517.183 2215.41 515.124 2217.46 513.663 2220.11C512.136 2222.76 511.405 2225.81 511.405 2229.25C511.405 2232.69 512.136 2235.67 513.663 2238.39C515.124 2241.03 517.249 2243.15 519.839 2244.61C522.495 2246.07 525.417 2246.86 528.671 2246.86C531.925 2246.86 534.847 2246.13 537.503 2244.61Z" fill="white"/>
<path d="M603.512 2256.79L592.887 2241.5H581.133V2256.79H568.383V2201.84H592.223C597.137 2201.84 601.321 2202.63 604.907 2204.29C608.493 2205.94 611.282 2208.19 613.208 2211.17C615.134 2214.15 616.13 2217.66 616.13 2221.77C616.13 2225.87 615.134 2229.38 613.208 2232.36C611.216 2235.34 608.427 2237.59 604.841 2239.18L617.192 2256.86H603.512V2256.79ZM600.258 2214.68C598.266 2213.03 595.344 2212.23 591.493 2212.23H581.067V2231.37H591.493C595.344 2231.37 598.266 2230.51 600.258 2228.85C602.251 2227.2 603.247 2224.81 603.247 2221.77C603.247 2218.72 602.251 2216.34 600.258 2214.68Z" fill="white"/>
<path d="M626.29 2201.84H651.326C657.302 2201.84 662.615 2202.96 667.197 2205.28C671.779 2207.53 675.365 2210.78 677.889 2214.88C680.412 2218.99 681.74 2223.82 681.74 2229.31C681.74 2234.81 680.479 2239.64 677.889 2243.75C675.365 2247.85 671.779 2251.1 667.197 2253.35C662.615 2255.6 657.302 2256.79 651.326 2256.79H626.29V2201.84ZM650.728 2246.33C656.24 2246.33 660.623 2244.81 663.943 2241.76C667.197 2238.72 668.857 2234.55 668.857 2229.31C668.857 2224.08 667.197 2219.91 663.943 2216.87C660.689 2213.82 656.24 2212.3 650.728 2212.3H639.107V2246.4H650.728V2246.33Z" fill="white"/>
<path d="M734.07 2246.6V2256.79H691.37V2201.84H733.007V2212.03H703.987V2223.95H729.554V2233.88H703.987V2246.6H734.003H734.07Z" fill="white"/>
<path d="M779.36 2256.79L768.734 2241.5H756.98V2256.79H744.23V2201.84H768.07C772.985 2201.84 777.168 2202.63 780.754 2204.29C784.34 2205.94 787.129 2208.19 789.055 2211.17C790.981 2214.15 791.977 2217.66 791.977 2221.77C791.977 2225.87 790.981 2229.38 789.055 2232.36C787.063 2235.34 784.274 2237.59 780.688 2239.18L793.04 2256.86H779.36V2256.79ZM776.106 2214.68C774.113 2213.03 771.191 2212.23 767.34 2212.23H756.914V2231.37H767.34C771.191 2231.37 774.113 2230.51 776.106 2228.85C778.098 2227.2 779.094 2224.81 779.094 2221.77C779.094 2218.72 778.098 2216.34 776.106 2214.68Z" fill="white"/>
<path d="M482.784 454.788H110.569V818.34H482.784V454.788Z" fill="#EBEBEB"/>
<path d="M110.569 454.788C110.569 454.788 112.295 454.722 115.815 454.655C119.401 454.655 124.581 454.655 131.421 454.523C145.234 454.523 165.621 454.391 191.918 454.324C244.845 454.192 321.878 454.06 418.435 453.861C611.946 453.662 883.62 453.397 1196.67 453.066H1198.33V454.722C1198.33 569.329 1198.33 691.881 1198.33 818.208V819.995H1196.6C761.895 819.73 371.949 819.532 110.569 819.399H109.44V818.274C109.706 704.196 109.905 613.225 110.038 550.658C110.17 519.606 110.237 495.572 110.303 479.285C110.303 471.274 110.37 465.116 110.436 460.945C110.436 456.84 110.569 454.788 110.569 454.788C110.569 454.788 110.635 456.973 110.702 461.144C110.702 465.381 110.768 471.605 110.835 479.682C110.835 496.036 110.967 520.136 111.1 551.32C111.233 613.689 111.432 704.461 111.698 818.274L110.569 817.148C372.016 817.016 761.961 816.817 1196.6 816.552L1194.87 818.274C1194.87 691.881 1194.87 569.329 1194.87 454.722L1196.53 456.377C883.952 456.046 612.677 455.781 419.431 455.582C322.741 455.384 245.642 455.251 192.582 455.119C166.086 455.053 145.632 454.986 131.687 454.92C124.78 454.92 119.534 454.854 115.881 454.788C112.295 454.788 110.436 454.655 110.436 454.655L110.569 454.788Z" fill="#263238"/>
<path d="M770.461 520.003H554.969V549.268H770.461V520.003Z" fill="#ED5B55"/>
<path d="M1123.35 592.171H554.969V610.908H1123.35V592.171Z" fill="#E0E0E0"/>
<path d="M1123.35 629.711H554.969V648.449H1123.35V629.711Z" fill="#E0E0E0"/>
<path d="M972.208 740.346H961.45V750.807H953.481V740.346H942.789V732.798H953.481V722.337H961.45V732.798H972.208V740.346Z" fill="#ED5B55"/>
<path d="M1045.72 750.079V758.223H1013.05V751.734L1029.72 736.043C1031.51 734.387 1032.7 732.931 1033.3 731.673C1033.9 730.481 1034.23 729.289 1034.23 728.098C1034.23 726.376 1033.63 725.052 1032.44 724.125C1031.24 723.198 1029.52 722.735 1027.26 722.735C1025.33 722.735 1023.67 723.066 1022.15 723.794C1020.62 724.522 1019.36 725.582 1018.29 727.038L1010.99 722.337C1012.65 719.821 1014.97 717.901 1017.96 716.445C1020.95 715.054 1024.34 714.326 1028.19 714.326C1031.38 714.326 1034.23 714.856 1036.62 715.915C1039.01 716.975 1040.94 718.431 1042.27 720.351C1043.6 722.271 1044.26 724.522 1044.26 727.104C1044.26 729.422 1043.79 731.673 1042.8 733.725C1041.8 735.778 1039.88 738.095 1037.02 740.743L1027.06 750.079H1045.65H1045.72Z" fill="#ED5B55"/>
<path d="M1085.63 736.969H1103.1V744.65H1085.63V736.969Z" fill="#ED5B55"/>
<path d="M1123.35 786.494C1123.35 786.494 1123.29 785.832 1123.22 784.574C1123.22 783.117 1123.15 781.396 1123.09 779.211C1123.02 774.245 1122.89 767.492 1122.75 758.885C1122.62 741.141 1122.36 716.048 1122.09 685.128L1123.35 686.386C1067.24 686.518 991.732 686.651 908.656 686.849C907.128 688.372 910.714 684.731 910.382 685.128V688.438V691.749V698.37C910.382 702.806 910.382 707.176 910.382 711.545C910.382 720.285 910.382 728.892 910.382 737.367C910.382 754.316 910.382 770.736 910.316 786.427L908.656 784.772C970.813 785.103 1024.2 785.368 1062.39 785.567C1081.25 785.765 1096.32 785.898 1107.08 786.03C1112.13 786.096 1116.11 786.163 1119.1 786.229C1121.82 786.295 1123.35 786.361 1123.42 786.427C1123.48 786.494 1122.16 786.56 1119.5 786.626C1116.58 786.626 1112.73 786.758 1107.81 786.825C1097.19 786.957 1082.25 787.09 1063.52 787.288C1025.07 787.487 971.278 787.752 908.656 788.083H906.995V786.427C906.995 770.736 906.995 754.316 906.929 737.367C906.929 728.892 906.929 720.285 906.929 711.545C906.929 707.176 906.929 702.806 906.929 698.37V691.749V688.438V685.194C906.531 685.459 910.183 681.818 908.656 683.407C991.732 683.605 1067.24 683.738 1123.35 683.87H1124.61V685.128C1124.35 716.379 1124.08 741.736 1123.95 759.679C1123.82 768.154 1123.68 774.841 1123.62 779.74C1123.62 781.793 1123.48 783.514 1123.48 784.905C1123.48 786.03 1123.42 786.626 1123.35 786.56V786.494Z" fill="#263238"/>
<path d="M598.266 754.118C595.145 757.163 590.563 759.083 584.653 759.812V768.617H576.75V760.077C572.899 759.878 569.18 759.216 565.66 758.024C562.141 756.898 559.285 755.442 557.16 753.787L561.477 744.186C563.469 745.643 565.793 746.901 568.516 747.894C571.172 748.887 573.961 749.549 576.817 749.748V736.639C573.098 735.778 569.91 734.785 567.387 733.659C564.797 732.534 562.672 730.945 560.945 728.826C559.219 726.707 558.355 723.86 558.355 720.417C558.355 716.048 559.949 712.34 563.137 709.228C566.324 706.116 570.907 704.196 576.883 703.534V694.795H584.786V703.336C591.227 703.865 596.54 705.454 600.79 708.103L596.872 717.769C592.954 715.518 588.903 714.128 584.852 713.664V727.038C588.505 727.899 591.626 728.826 594.216 729.885C596.739 730.945 598.931 732.534 600.657 734.652C602.384 736.771 603.247 739.552 603.247 742.995C603.247 747.298 601.653 750.94 598.532 754.051L598.266 754.118ZM572.434 723C573.43 723.86 574.891 724.522 576.75 725.118V713.995C574.758 714.459 573.297 715.187 572.368 716.246C571.438 717.239 570.973 718.431 570.973 719.822C570.973 721.212 571.504 722.205 572.5 723.066L572.434 723ZM588.903 747.431C589.833 746.504 590.298 745.378 590.298 744.054C590.298 742.73 589.833 741.67 588.837 740.81C587.84 739.949 586.446 739.221 584.653 738.625V749.483C586.512 749.086 587.973 748.358 588.903 747.431Z" fill="#E0E0E0"/>
<path d="M657.834 754.118C654.713 757.163 650.131 759.083 644.22 759.812V768.617H636.318V760.077C632.466 759.878 628.747 759.216 625.228 758.024C621.708 756.898 618.853 755.442 616.728 753.787L621.044 744.186C623.036 745.643 625.361 746.901 628.083 747.894C630.74 748.887 633.529 749.549 636.384 749.748V736.639C632.665 735.778 629.478 734.785 626.954 733.659C624.364 732.534 622.239 730.945 620.513 728.826C618.786 726.707 617.923 723.86 617.923 720.417C617.923 716.048 619.517 712.34 622.704 709.228C625.892 706.116 630.474 704.196 636.451 703.534V694.795H644.353V703.336C650.795 703.865 656.107 705.454 660.357 708.103L656.439 717.769C652.521 715.518 648.47 714.128 644.42 713.664V727.038C648.072 727.899 651.193 728.826 653.783 729.885C656.306 730.945 658.498 732.534 660.225 734.652C661.951 736.771 662.814 739.552 662.814 742.995C662.814 747.298 661.221 750.94 658.099 754.051L657.834 754.118ZM632.001 723C632.997 723.86 634.458 724.522 636.318 725.118V713.995C634.326 714.459 632.865 715.187 631.935 716.246C631.005 717.239 630.54 718.431 630.54 719.822C630.54 721.212 631.072 722.205 632.068 723.066L632.001 723ZM648.47 747.431C649.4 746.504 649.865 745.378 649.865 744.054C649.865 742.73 649.4 741.67 648.404 740.81C647.408 739.949 646.013 739.221 644.22 738.625V749.483C646.08 749.086 647.541 748.358 648.47 747.431Z" fill="#E0E0E0"/>
<path d="M483.115 821.717C482.186 821.717 481.389 740.081 481.389 639.378C481.389 538.674 482.186 456.973 483.115 456.973C484.045 456.973 484.842 538.608 484.842 639.378C484.842 740.148 484.045 821.717 483.115 821.717Z" fill="#263238"/>
<path d="M482.784 855.88H110.569V1219.43H482.784V855.88Z" fill="#EBEBEB"/>
<path d="M110.569 855.881C110.569 855.881 112.295 855.814 115.815 855.748C119.401 855.748 124.581 855.748 131.421 855.616C145.234 855.616 165.621 855.483 191.918 855.417C244.845 855.285 321.878 855.152 418.435 854.954C611.946 854.755 883.62 854.49 1196.67 854.159H1198.33V855.814C1198.33 970.422 1198.33 1092.97 1198.33 1219.3V1221.09H1196.6C761.895 1220.82 371.949 1220.62 110.569 1220.49H109.44V1219.37C109.706 1105.29 109.905 1014.32 110.038 951.751C110.17 920.699 110.237 896.665 110.303 880.378C110.303 872.367 110.37 866.209 110.436 862.038C110.436 857.933 110.569 855.881 110.569 855.881C110.569 855.881 110.635 858.066 110.702 862.237C110.702 866.474 110.768 872.698 110.835 880.775C110.835 897.129 110.967 921.229 111.1 952.413C111.233 1014.78 111.432 1105.55 111.698 1219.37L110.569 1218.24C372.016 1218.11 761.961 1217.91 1196.6 1217.65L1194.87 1219.37C1194.87 1092.97 1194.87 970.422 1194.87 855.814L1196.53 857.47C883.952 857.139 612.677 856.874 419.431 856.675C322.741 856.477 245.642 856.344 192.582 856.212C166.086 856.146 145.632 856.079 131.687 856.013C124.78 856.013 119.534 855.947 115.881 855.881C112.295 855.881 110.436 855.748 110.436 855.748L110.569 855.881Z" fill="#263238"/>
<path d="M770.461 921.096H554.969V950.36H770.461V921.096Z" fill="#ED5B55"/>
<path d="M1123.35 993.33H554.969V1012.07H1123.35V993.33Z" fill="#E0E0E0"/>
<path d="M1123.35 1030.8H554.969V1049.54H1123.35V1030.8Z" fill="#E0E0E0"/>
<path d="M972.208 1141.5H961.45V1151.97H953.481V1141.5H942.789V1133.96H953.481V1123.5H961.45V1133.96H972.208V1141.5Z" fill="#ED5B55"/>
<path d="M1030.05 1116.15V1159.32H1020.02V1124.16H1011.39V1116.15H1030.05Z" fill="#ED5B55"/>
<path d="M1073.41 1138.13H1090.88V1145.81H1073.41V1138.13Z" fill="#ED5B55"/>
<path d="M1123.35 1187.59C1123.35 1187.59 1123.29 1186.92 1123.22 1185.67C1123.22 1184.21 1123.15 1182.49 1123.09 1180.3C1123.02 1175.34 1122.89 1168.58 1122.75 1159.98C1122.62 1142.23 1122.36 1117.14 1122.09 1086.22L1123.35 1087.48C1067.24 1087.61 991.732 1087.74 908.656 1087.94C907.128 1089.46 910.714 1085.82 910.382 1086.22V1089.53V1092.84V1099.46C910.382 1103.9 910.382 1108.27 910.382 1112.64C910.382 1121.38 910.382 1129.98 910.382 1138.46C910.382 1155.41 910.382 1171.83 910.316 1187.52L908.656 1185.86C970.813 1186.2 1024.2 1186.46 1062.39 1186.66C1081.25 1186.86 1096.32 1186.99 1107.08 1187.12C1112.13 1187.19 1116.11 1187.26 1119.1 1187.32C1121.82 1187.39 1123.35 1187.45 1123.42 1187.52C1123.48 1187.59 1122.16 1187.65 1119.5 1187.72C1116.58 1187.72 1112.73 1187.85 1107.81 1187.92C1097.19 1188.05 1082.25 1188.18 1063.52 1188.38C1025.07 1188.58 971.278 1188.84 908.656 1189.18H906.995V1187.52C906.995 1171.83 906.995 1155.41 906.929 1138.46C906.929 1129.98 906.929 1121.38 906.929 1112.64C906.929 1108.27 906.929 1103.9 906.929 1099.46V1092.84V1089.53V1086.29C906.531 1086.55 910.183 1082.91 908.656 1084.5C991.732 1084.7 1067.24 1084.83 1123.35 1084.96H1124.61V1086.22C1124.35 1117.47 1124.08 1142.83 1123.95 1160.77C1123.82 1169.25 1123.68 1175.93 1123.62 1180.83C1123.62 1182.89 1123.48 1184.61 1123.48 1186C1123.48 1187.12 1123.42 1187.72 1123.35 1187.65V1187.59Z" fill="#263238"/>
<path d="M598.266 1155.28C595.145 1158.32 590.563 1160.24 584.653 1160.97V1169.78H576.75V1161.24C572.899 1161.04 569.18 1160.37 565.66 1159.18C562.141 1158.06 559.285 1156.6 557.16 1154.95L561.477 1145.35C563.469 1146.8 565.793 1148.06 568.516 1149.05C571.172 1150.05 573.961 1150.71 576.817 1150.91V1137.8C573.098 1136.94 569.91 1135.94 567.387 1134.82C564.797 1133.69 562.672 1132.1 560.945 1129.98C559.219 1127.87 558.355 1125.02 558.355 1121.58C558.355 1117.21 559.949 1113.5 563.137 1110.39C566.324 1107.28 570.907 1105.36 576.883 1104.69V1095.95H584.786V1104.49C591.227 1105.02 596.54 1106.61 600.79 1109.26L596.872 1118.93C592.954 1116.68 588.903 1115.29 584.852 1114.82V1128.2C588.505 1129.06 591.626 1129.98 594.216 1131.04C596.739 1132.1 598.931 1133.69 600.657 1135.81C602.384 1137.93 603.247 1140.71 603.247 1144.15C603.247 1148.46 601.653 1152.1 598.532 1155.21L598.266 1155.28ZM572.434 1124.16C573.43 1125.02 574.891 1125.68 576.75 1126.28V1115.15C574.758 1115.62 573.297 1116.35 572.368 1117.41C571.438 1118.4 570.973 1119.59 570.973 1120.98C570.973 1122.37 571.504 1123.36 572.5 1124.22L572.434 1124.16ZM588.903 1148.59C589.833 1147.66 590.298 1146.54 590.298 1145.21C590.298 1143.89 589.833 1142.83 588.837 1141.97C587.84 1141.11 586.446 1140.38 584.653 1139.78V1150.64C586.512 1150.24 587.973 1149.52 588.903 1148.59Z" fill="#E0E0E0"/>
<path d="M483.115 1222.81C482.186 1222.81 481.389 1141.17 481.389 1040.47C481.389 939.767 482.186 858.065 483.115 858.065C484.045 858.065 484.842 939.701 484.842 1040.47C484.842 1141.24 484.045 1222.81 483.115 1222.81Z" fill="#263238"/>
<path d="M223.528 985.981L237.341 1169.25C237.74 1174.94 242.521 1179.38 248.232 1179.38L322.874 1179.97C328.652 1179.97 333.433 1175.6 333.964 1169.91L349.105 988.166L223.528 985.915V985.981Z" fill="#ED5B55"/>
<path d="M223.595 986.047C226.649 1025.31 234.419 1125.09 237.341 1162.96C237.341 1176.2 242.056 1179.84 255.205 1178.98C270.014 1179.05 299.764 1179.31 314.573 1179.38C326.726 1180.04 333.699 1178.91 333.699 1165.08L338.546 1106.08C339.011 1107.14 347.511 984.326 349.105 988.894L223.661 986.047H223.595ZM223.462 985.915C224.192 985.981 349.238 987.437 349.836 987.503C349.836 988.232 340.007 1105.42 339.941 1106.22L334.96 1165.14C334.628 1167.59 334.761 1170.04 334.031 1172.62C332.503 1177.66 327.124 1181.1 321.944 1180.63L314.507 1180.57C296.178 1180.3 266.029 1180.17 247.701 1179.91C238.47 1179.44 236.146 1170.77 236.345 1163.02C233.556 1125.48 226.251 1024.78 223.396 985.915H223.462Z" fill="black"/>
<path d="M342.597 1066.09C342.597 1066.09 289.737 1068.87 228.642 1064.64L232.228 1119.72C232.228 1119.72 298.834 1131.04 338.281 1117.21L342.531 1066.09H342.597Z" fill="#465E68"/>
<g opacity="0.3">
<path d="M348.242 998.031C348.242 998.031 316.565 1013.13 266.826 1010.01C230.7 1007.76 224.325 999.024 224.325 999.024L223.86 990.814L348.773 991.079L348.175 998.031H348.242Z" fill="black"/>
</g>
<path d="M354.351 978.234L357.207 990.814C357.207 990.814 342.929 1002.67 284.557 1001.87C232.36 1001.14 219.676 991.542 219.676 991.542L215.625 988.099L219.145 976.182L354.351 978.3V978.234Z" fill="#E0E0E0"/>
<path d="M354.351 978.234C354.351 978.234 354.085 978.234 353.621 978.234C353.156 978.234 352.492 978.234 351.628 978.234C349.835 978.234 347.245 978.234 343.859 978.234C337.085 978.168 327.323 978.035 315.237 977.903C290.998 977.572 257.263 977.109 219.145 976.579L219.544 976.314C218.415 980.088 217.219 984.127 216.024 988.232L215.891 987.834C217.219 988.96 218.68 990.218 220.075 991.41C221.669 992.403 223.462 993.197 225.255 993.859C226.184 994.19 227.048 994.521 227.977 994.786C228.907 995.117 229.837 995.382 230.766 995.581C234.419 996.64 238.204 997.368 241.857 998.097C249.228 999.421 256.533 1000.22 263.638 1000.68C277.849 1001.74 291.197 1001.8 303.35 1001.41C315.436 1001.01 326.327 999.884 335.491 998.097C340.073 997.236 344.191 996.177 347.843 994.985C351.496 993.793 354.683 992.469 357.074 990.814V990.946C356.144 986.907 355.48 983.796 354.949 981.611C354.749 980.551 354.55 979.757 354.417 979.161C354.285 978.631 354.285 978.3 354.285 978.3C354.285 978.3 354.351 978.565 354.484 979.095C354.617 979.691 354.816 980.485 355.082 981.478C355.613 983.663 356.343 986.775 357.339 990.88V991.012C354.882 992.734 351.695 994.058 348.042 995.316C344.39 996.574 340.206 997.633 335.624 998.56C326.46 1000.41 315.569 1001.54 303.416 1002.07C291.264 1002.53 277.849 1002.47 263.638 1001.47C256.533 1001.01 249.161 1000.22 241.724 998.891C238.005 998.229 234.286 997.435 230.567 996.375C229.638 996.111 228.708 995.846 227.778 995.515C226.848 995.25 225.919 994.919 224.989 994.588C223.13 993.926 221.337 993.131 219.61 992.072C218.083 990.814 216.688 989.622 215.293 988.43L215.094 988.232V987.967C216.356 983.862 217.618 979.823 218.747 976.049V975.784H219.145C257.329 976.447 291.131 977.042 315.503 977.44C327.589 977.704 337.284 977.837 344.058 977.969C347.378 978.036 349.968 978.102 351.761 978.168C352.624 978.168 353.289 978.168 353.753 978.168C354.218 978.168 354.417 978.168 354.417 978.168L354.351 978.234Z" fill="#263238"/>
<path d="M219.079 977.175C219.079 983.266 249.095 987.636 286.682 988.629C312.315 989.291 349.769 984.392 354.417 978.036C358.003 973.07 324.202 966.78 286.814 966.582C249.427 966.317 219.145 971.084 219.079 977.175Z" fill="white"/>
<path d="M219.079 977.175C219.079 977.175 219.079 976.91 219.211 976.447C219.344 975.983 219.809 975.387 220.54 974.791C222.067 973.666 224.59 972.54 228.044 971.547C234.884 969.627 245.11 968.038 257.728 967.111C270.345 966.184 285.486 965.787 302.287 966.582C310.655 966.979 319.421 967.707 328.518 968.899C333.034 969.495 337.616 970.289 342.265 971.282C344.589 971.812 346.913 972.408 349.171 973.136C350.3 973.533 351.429 973.931 352.558 974.527C352.824 974.659 353.089 974.791 353.355 974.99C353.62 975.122 353.886 975.321 354.152 975.52C354.417 975.718 354.617 975.983 354.816 976.248C355.015 976.579 355.148 976.976 355.081 977.373C355.081 977.771 354.816 978.168 354.617 978.367C354.417 978.631 354.152 978.896 353.952 979.029C353.488 979.426 352.956 979.757 352.425 980.088C351.363 980.684 350.234 981.147 349.105 981.611C346.847 982.472 344.523 983.134 342.265 983.663C337.683 984.789 333.1 985.583 328.585 986.246C319.553 987.57 310.788 988.298 302.354 988.695C293.986 989.092 285.951 988.894 278.513 988.563C271.076 988.232 264.103 987.768 257.794 987.239C245.177 986.113 234.95 984.524 228.11 982.604C224.723 981.677 222.133 980.551 220.606 979.426C219.876 978.83 219.411 978.234 219.278 977.771C219.145 977.307 219.145 977.042 219.145 977.042C219.145 977.042 219.145 977.307 219.344 977.705C219.477 978.168 219.942 978.698 220.672 979.227C222.2 980.287 224.723 981.346 228.176 982.273C235.016 984.127 245.177 985.583 257.794 986.643C264.103 987.172 271.009 987.57 278.447 987.901C285.885 988.232 293.854 988.364 302.221 987.901C310.588 987.503 319.354 986.709 328.319 985.451C332.835 984.789 337.351 983.994 341.933 982.869C344.191 982.339 346.515 981.677 348.706 980.816C349.835 980.419 350.898 979.956 351.894 979.36C352.359 979.029 352.89 978.764 353.288 978.367C353.753 978.036 354.152 977.572 354.218 977.175C354.285 976.778 353.953 976.38 353.554 976.049C353.355 975.851 353.156 975.718 352.89 975.586C352.624 975.453 352.425 975.255 352.159 975.189C351.097 974.659 350.034 974.262 348.906 973.864C346.648 973.136 344.39 972.54 342.066 972.011C337.483 971.017 332.901 970.289 328.386 969.627C319.354 968.435 310.588 967.707 302.221 967.244C285.486 966.383 270.412 966.78 257.794 967.575C245.177 968.435 235.016 969.892 228.176 971.746C224.79 972.673 222.2 973.732 220.672 974.791C219.942 975.321 219.477 975.917 219.344 976.314C219.211 976.778 219.211 976.976 219.145 976.976L219.079 977.175Z" fill="#263238"/>
<path d="M325.198 966.383L326.792 973.467C326.792 973.467 318.757 980.75 285.951 979.691C253.146 978.631 249.494 973.864 249.494 973.864L248.564 972.739L249.228 965.257L325.198 966.449V966.383Z" fill="#E0E0E0"/>
<path d="M325.198 966.383C325.198 966.383 325.066 966.383 324.8 966.383C324.468 966.383 324.136 966.383 323.671 966.383C322.608 966.383 321.148 966.383 319.288 966.383C315.436 966.383 309.991 966.317 303.151 966.25C289.471 966.052 270.545 965.853 249.228 965.588L249.626 965.191C249.427 967.574 249.228 970.09 248.962 972.673V972.408C248.962 972.408 249.294 972.937 249.56 973.202C249.826 973.533 249.959 973.666 250.291 973.864C252.084 974.924 254.209 975.519 256.267 976.049C258.326 976.579 260.451 976.91 262.51 977.241C266.627 977.903 270.744 978.3 274.729 978.565C282.697 979.161 290.135 979.426 296.909 979.227C303.682 979.095 309.725 978.499 314.839 977.44C317.429 976.976 319.687 976.314 321.745 975.652C323.737 974.924 325.53 974.129 326.792 973.202V973.335C326.261 971.083 325.929 969.362 325.663 968.104C325.53 967.508 325.464 967.111 325.398 966.714C325.398 966.383 325.331 966.25 325.331 966.25C325.331 966.25 325.331 966.383 325.464 966.648C325.53 966.979 325.663 967.442 325.796 967.972C326.128 969.23 326.527 971.017 327.124 973.268L327.058 973.401C325.73 974.46 323.937 975.255 321.944 976.049C319.886 976.777 317.561 977.44 315.038 977.969C309.925 979.029 303.815 979.691 296.975 979.889C290.202 980.088 282.697 979.889 274.729 979.293C270.744 978.962 266.627 978.631 262.443 977.969C260.385 977.638 258.259 977.307 256.134 976.711C254.009 976.182 251.884 975.586 249.892 974.394C249.56 974.195 249.162 973.798 249.029 973.533C248.83 973.268 248.564 973.004 248.365 972.739L248.232 972.606V972.408C248.498 969.826 248.697 967.31 248.896 964.926V964.529H249.294C270.744 964.926 289.737 965.257 303.483 965.522C310.257 965.654 315.702 965.787 319.554 965.919C321.347 965.919 322.808 965.985 323.87 966.052C324.335 966.052 324.667 966.052 324.999 966.052C325.265 966.052 325.398 966.052 325.331 966.052L325.198 966.383Z" fill="#263238"/>
<path d="M249.161 965.787C249.161 969.23 266.161 972.077 287.146 972.209C308.131 972.342 325.198 969.693 325.198 966.25C325.198 962.808 308.198 959.961 287.213 959.828C266.228 959.696 249.161 962.344 249.161 965.787Z" fill="white"/>
<path d="M249.161 965.787C249.161 965.787 249.095 965.125 249.958 964.463C250.822 963.801 252.282 963.139 254.208 962.609C258.06 961.483 263.771 960.623 270.943 960.027C278.049 959.497 286.549 959.299 296.045 959.696C300.76 959.894 305.741 960.225 310.788 960.954C313.311 961.285 315.901 961.682 318.557 962.344C319.885 962.675 321.147 963.006 322.409 963.536C323.073 963.801 323.671 964.066 324.268 964.463C324.866 964.86 325.53 965.39 325.663 966.383C325.597 967.376 324.866 967.906 324.268 968.237C323.671 968.634 323.007 968.899 322.343 969.164C321.081 969.627 319.753 969.958 318.425 970.289C315.835 970.885 313.245 971.282 310.655 971.547C305.541 972.143 300.561 972.474 295.846 972.606C286.416 972.871 277.916 972.607 270.744 971.944C263.638 971.282 257.927 970.355 254.076 969.164C252.15 968.568 250.689 967.906 249.892 967.244C249.029 966.582 249.095 965.853 249.095 965.853C249.095 965.853 249.095 966.449 249.958 967.111C250.822 967.707 252.216 968.303 254.142 968.833C257.994 969.892 263.705 970.753 270.81 971.349C277.916 971.878 286.416 972.143 295.78 971.878C300.494 971.68 305.409 971.415 310.522 970.819C313.045 970.488 315.635 970.091 318.225 969.561C319.487 969.296 320.815 968.899 322.011 968.502C322.608 968.237 323.206 967.972 323.737 967.641C324.268 967.31 324.733 966.846 324.733 966.449C324.733 966.052 324.268 965.588 323.737 965.257C323.206 964.926 322.608 964.661 322.011 964.397C320.815 963.933 319.487 963.602 318.225 963.271C315.702 962.675 313.112 962.212 310.588 961.881C305.541 961.219 300.561 960.821 295.912 960.623C286.482 960.159 278.049 960.358 270.943 960.821C263.837 961.285 258.126 962.079 254.275 963.073C252.349 963.602 250.888 964.132 250.091 964.728C249.228 965.324 249.228 965.986 249.228 965.986L249.161 965.787Z" fill="#263238"/>
<path d="M281.037 964.264L279.244 882.43L289.604 881.967L291.397 964.33C287.346 964.198 284.756 965.522 281.104 964.33L281.037 964.264Z" fill="white"/>
<path d="M281.037 964.264C281.037 964.264 281.9 964.595 283.627 964.728C284.49 964.728 285.553 964.728 286.881 964.529C288.143 964.33 289.67 964.132 291.397 964.198L291.198 964.397C290.733 949.433 290.002 918.315 289.205 882.298V882.033L289.604 882.43C286.084 882.563 282.565 882.761 279.244 882.894L279.643 882.496C280.107 905.471 280.506 925.863 280.772 940.628C280.904 947.977 280.971 953.869 281.037 957.974C281.037 959.961 281.037 961.55 281.037 962.675C281.037 963.205 281.037 963.602 281.037 963.933C281.037 964.198 281.037 964.33 281.037 964.397C281.037 964.397 281.037 964.264 281.037 963.999C281.037 963.668 281.037 963.271 281.037 962.808C281.037 961.682 280.971 960.159 280.904 958.173C280.772 954.068 280.639 948.175 280.373 940.893C279.975 926.128 279.51 905.67 278.912 882.563V882.165H279.311C282.631 882.033 286.084 881.901 289.67 881.702H290.069V882.099V882.364C290.865 918.315 291.463 949.5 291.596 964.463V964.661H291.397C289.737 964.661 288.209 964.794 286.947 964.926C285.686 965.059 284.557 965.125 283.693 965.059C282.83 964.992 282.166 964.794 281.701 964.661C281.236 964.529 281.037 964.397 281.104 964.397L281.037 964.264Z" fill="#263238"/>
<path d="M286.416 882.496L288.076 964.529L284.291 964.397L281.967 882.563L286.416 882.496Z" fill="#455A64"/>
<path d="M190.59 643.549C191.785 636.465 196.168 631.301 200.817 626.203C206.793 619.582 212.438 612.497 218.747 606.207C232.161 592.899 248.431 584.69 266.892 580.783C267.822 580.585 268.884 579.923 269.482 579.128C272.404 575.685 276.056 573.633 280.572 573.567C288.674 573.5 296.709 573.567 304.811 573.567C309.061 573.567 312.514 575.288 315.436 578.4C315.967 578.996 316.897 579.393 317.694 579.459C333.366 581.181 347.71 586.411 360.859 595.084C362.918 596.475 363.449 598.13 362.386 599.785C361.324 601.44 359.531 601.44 357.273 600.249C351.23 597.071 345.12 594.025 339.077 590.979C338.413 590.648 337.683 590.516 336.62 590.119C337.616 592.899 338.48 595.283 339.277 597.733C344.39 613.755 345.585 630.043 342.73 646.661C342.597 647.389 342.929 648.647 343.394 648.846C350.964 652.355 358.535 655.732 366.703 659.373C368.562 653.679 370.555 648.184 372.148 642.622C374.473 634.346 375.336 625.871 375.004 617.264C375.004 616.205 374.406 615.013 373.742 614.219C372.215 612.431 370.488 610.842 368.828 609.187C366.969 607.333 366.703 605.612 368.164 604.155C369.492 602.831 371.418 602.831 373.078 604.618C378.789 610.776 384.434 617.066 390.012 623.289C392.203 625.739 394.328 628.321 396.52 630.837C408.141 644.344 402.895 663.346 385.895 668.841C385.629 668.907 385.363 669.04 385.297 669.106C384.965 672.151 384.965 675.131 384.301 677.978C381.512 689.895 371.019 697.973 358.601 697.973C343.394 697.973 328.186 697.973 312.979 697.973C311.85 697.973 310.721 698.37 309.526 698.502C307.534 698.834 305.608 699.363 303.616 699.363C296.311 699.496 288.94 699.496 281.635 699.363C279.443 699.363 277.318 698.635 275.193 698.238C274.33 698.105 273.467 697.907 272.537 697.907C260.052 697.907 247.501 697.774 235.017 697.907C218.215 698.171 206.793 684.466 207.657 670.298C207.657 669.768 207.192 668.775 206.727 668.642C197.762 665.464 192.316 659.241 190.59 649.905C190.59 649.773 190.457 649.707 190.324 649.574V643.351L190.59 643.549ZM317.827 691.617C318.225 691.617 318.557 691.749 318.889 691.749C332.37 691.749 345.851 691.948 359.265 691.683C367.699 691.551 373.742 687.247 377.262 679.567C378.656 676.455 379.254 673.211 378.723 670.364C374.937 669.106 371.484 668.113 368.164 666.788C364.711 665.398 361.39 663.677 357.937 662.286C347.976 658.115 337.948 653.944 327.921 649.971C325.198 648.912 322.143 648.449 319.022 647.654C319.022 651.958 319.022 655.798 319.022 659.638C319.022 661.757 317.76 663.015 315.901 663.015C314.042 663.015 312.846 661.69 312.78 659.638C312.78 659.042 312.78 658.38 312.78 657.784C312.78 634.743 312.78 611.637 312.78 588.596C312.78 583.167 309.46 579.79 304.08 579.724C296.51 579.724 288.873 579.724 281.303 579.724C276.123 579.724 272.67 583.167 272.67 588.265C272.67 620.376 272.67 652.421 272.67 684.532C272.67 689.697 276.056 693.14 281.236 693.14C288.873 693.14 296.576 693.14 304.213 693.14C309.46 693.14 312.78 689.697 312.78 684.334C312.78 680.759 312.78 677.183 312.78 673.608C312.78 671.423 314.108 670.099 316.034 670.165C317.893 670.165 318.956 671.489 319.022 673.674C319.022 675.594 319.022 677.448 319.022 679.368C321.745 679.898 325.53 678.441 325.597 682.546C325.663 687.048 321.612 685.261 319.221 685.923C318.69 687.843 318.225 689.697 317.694 691.617H317.827ZM209.848 625.209C206.395 629.314 202.809 633.088 199.754 637.259C195.438 643.086 195.836 651.097 200.285 656.923C204.668 662.684 212.239 665.266 218.946 662.617C226.45 659.704 233.688 656.195 241.192 652.885C240.794 652.289 240.528 651.759 240.13 651.362C236.81 647.588 233.423 643.88 230.102 640.106C228.708 638.584 228.641 636.73 229.903 635.472C231.165 634.214 232.958 634.214 234.485 635.67C235.88 636.995 237.274 638.319 238.536 639.775C241.458 643.152 244.314 646.529 247.036 649.707C253.146 647.588 259.056 645.469 265.099 643.483C266.162 643.152 266.494 642.622 266.427 641.563C266.427 637.988 266.427 634.412 266.427 630.837C266.427 629.976 266.029 629.116 265.63 628.387C260.517 619.383 254.076 611.438 246.372 604.552C243.915 602.367 241.325 600.381 238.868 598.329C229.106 604.287 221.005 611.637 214.165 620.376C217.219 622.362 220.141 624.216 222.997 626.136C225.055 627.527 225.52 629.248 224.458 630.837C223.329 632.492 221.536 632.625 219.411 631.234C216.29 629.182 213.168 627.262 209.914 625.143L209.848 625.209ZM266.361 676.19V649.243C259.787 651.891 253.544 654.474 247.302 656.99C236.345 661.359 226.251 667.98 214.231 670.165C214.231 670.695 214.098 671.357 214.165 672.019C214.165 673.211 214.231 674.402 214.497 675.528C216.422 685.261 224.391 691.749 234.618 691.815C245.111 691.815 255.603 691.815 266.095 691.815C266.693 691.815 267.291 691.815 267.689 691.749C267.158 688.704 266.693 685.79 266.162 682.811C261.513 682.348 260.185 681.685 260.318 679.633C260.583 675.727 263.904 676.654 266.361 676.323V676.19ZM319.221 585.815V641.166C324.999 642.755 330.71 644.277 336.687 645.933C336.952 644.013 337.218 642.093 337.484 640.106C339.609 622.296 336.753 605.281 329.382 588.993C329.116 588.397 328.585 587.669 328.12 587.537C325.265 586.874 322.343 586.345 319.288 585.749L319.221 585.815ZM372.215 661.757C375.934 663.61 379.652 664.008 383.438 663.147C395.657 660.366 400.704 646.065 392.934 636.266C389.481 631.963 385.762 627.858 382.176 623.687C382.043 623.488 381.777 623.488 381.445 623.289C380.848 636.73 377.793 649.442 372.215 661.757ZM244.911 594.489C244.911 594.489 244.978 595.084 245.044 595.349C253.146 601.639 260.119 609.054 266.427 617.86V586.808C259.056 589.457 252.017 591.973 244.911 594.555V594.489Z" fill="#ED5B55"/>
<path d="M190.457 643.549C192.25 633.419 200.617 626.666 206.86 619.184C222.067 599.322 243.45 584.954 268.088 579.923C271.342 576.48 275.724 572.838 280.971 573.235H295.846C300.295 573.567 306.604 572.375 310.721 574.493C313.112 575.42 314.905 577.605 316.698 578.797C332.636 580.849 348.507 585.881 361.789 595.217C362.785 596.011 363.715 597.468 363.25 598.924C361.257 604.883 354.152 598.726 349.835 596.938C345.386 594.886 341.07 592.105 336.487 590.582L337.085 589.92C344.456 608.127 346.382 628.454 343.327 647.72C343.46 648.647 344.324 648.581 344.921 648.978C345.253 649.111 365.707 658.38 366.902 658.91L366.039 659.307C370.222 646.793 375.07 632.426 374.273 619.052C374.672 613.888 369.558 612.299 366.969 608.194C364.578 604.089 370.488 600.646 373.277 604.089C377.395 608.392 387.754 620.177 391.938 624.68C395.789 629.314 400.637 633.883 402.297 640.173C406.614 652.752 397.782 666.457 385.496 669.9L385.961 669.304C385.629 674.138 385.297 679.501 382.84 684.069C378.324 693.471 367.965 699.231 357.671 698.9H342.663H312.647C304.213 700.952 291.463 699.959 282.764 700.091C272.736 697.973 262.974 698.767 252.88 698.569C244.247 697.973 231.099 700.025 223.063 696.053C213.766 691.948 207.325 682.215 207.457 672.085C207.457 670.893 207.657 669.437 206.528 669.04C195.836 665.663 189.129 654.54 190.391 643.615L190.457 643.549ZM190.59 643.549C189.461 654.275 196.035 665.266 206.727 668.51C208.254 669.106 207.989 670.893 207.989 672.019C207.789 687.644 222.798 699.363 237.939 697.642C245.443 697.642 260.451 697.575 267.955 697.509C272.935 696.913 277.982 698.767 282.83 698.9H297.838C302.952 699.164 307.6 698.37 312.713 697.443L342.73 697.311C352.624 696.781 363.183 699.098 371.683 693.802C380.848 688.77 384.567 678.706 384.567 668.642C396.653 665.398 405.087 652.752 401.036 640.57C398.313 631.168 384.832 619.648 378.59 611.835L372.414 605.016C371.484 604.023 370.09 603.625 369.094 604.354C367.965 605.082 367.566 606.34 368.297 607.465C370.621 610.842 376.531 614.02 375.734 618.92V623.554C376 634.81 370.555 649.574 367.168 660.234C365.043 659.307 346.183 650.7 344.589 649.971C340.738 648.978 342.796 644.873 342.929 642.424C345.519 624.415 342.531 606.141 335.956 589.258C341.136 590.847 345.585 593.76 350.367 596.077L357.007 599.454C358.933 600.646 361.722 601.308 362.519 598.66C363.117 596.409 360.261 595.151 358.336 593.893C345.718 585.815 331.308 581.578 316.565 579.459C314.307 578.069 313.046 576.082 310.588 575.156C306.737 573.103 300.295 574.162 296.045 573.898H281.17C275.857 573.633 272.072 576.877 268.552 580.452C243.782 585.55 222.598 599.587 207.192 619.449C200.949 626.865 192.516 633.618 190.789 643.615L190.59 643.549Z" fill="black"/>
<path d="M317.893 691.617C328.452 691.881 344.058 691.484 354.816 691.617C368.429 693.272 379.32 683.407 378.656 670.761C358.867 664.802 339.077 652.951 319.022 648.25L319.553 647.786V657.718C319.553 659.241 319.952 661.293 318.424 662.75C316.963 664.074 314.506 663.941 313.245 662.419C311.651 660.366 312.58 654.937 312.315 652.355C312.315 645.866 312.248 609.981 312.182 602.765V592.833C312.78 585.55 310.854 579.79 302.42 580.518H292.459H282.498C274.064 579.989 272.802 586.345 273.4 593.363V603.294V682.612C272.537 690.822 277.916 693.338 285.353 692.676H305.209C313.245 692.146 312.448 683.407 312.381 677.448C312.448 675.727 312.182 674.204 312.647 672.416C314.307 667.848 320.284 670.099 319.42 674.535V679.5L319.155 679.169C321.678 679.5 326.128 678.706 325.862 682.678C326.128 686.916 322.01 685.79 319.288 686.121C319.62 685.592 317.76 691.749 317.827 691.617H317.893ZM317.76 691.683L319.221 685.923C319.221 685.923 319.221 685.857 319.354 685.79C321.811 685.327 325.928 686.452 325.53 682.612C325.53 678.772 321.413 680.229 318.889 679.633V679.368V674.402C319.487 670.695 314.772 668.973 313.577 672.549C312.979 677.382 313.975 682.414 313.112 687.379C312.381 690.888 308.994 693.47 305.541 693.669L285.619 693.802C277.517 694.662 271.408 691.55 272.138 682.48C272.138 677.713 272.138 594.356 272.138 593.23C270.943 576.546 280.041 579.128 292.658 578.996H302.619C311.717 578.267 314.44 584.756 313.643 592.635V602.566C313.643 610.047 313.577 645.535 313.51 652.156C313.709 654.474 312.912 659.969 314.174 661.624C314.971 662.75 316.897 662.816 317.893 661.889C318.956 660.962 318.69 659.174 318.756 657.519V647.588V646.992C324.135 648.051 329.514 649.773 334.561 652.09C348.972 657.85 364.777 665.133 379.121 670.231C380.582 683.738 367.699 693.669 354.882 691.749C343.858 691.55 328.717 692.014 317.827 691.55L317.76 691.683Z" fill="black"/>
<path d="M209.848 625.342C206.395 630.109 199.688 636.068 197.762 641.629C194.309 651.494 202.211 662.948 212.637 663.346C216.024 663.677 219.212 662.286 222.266 660.83L240.993 652.553L240.794 653.216C237.54 648.912 233.024 644.476 229.438 640.239C227.911 638.583 228.243 635.538 230.368 634.479C234.352 632.625 237.474 638.451 239.997 640.636L247.501 649.375L246.837 649.177L264.701 642.953C266.295 642.622 265.564 641.298 265.697 639.709V635.008C265.697 633.485 265.697 631.698 265.564 630.44C262.443 623.62 257.33 617.264 252.283 611.57C248.099 606.936 243.118 603.029 238.337 598.991L239.267 599.057C229.77 604.685 221.403 612.1 214.563 620.773L214.43 620.045L221.337 624.613C222.466 625.408 223.727 626.004 224.657 627.262C226.981 630.109 223.13 634.015 220.208 632.161C217.684 630.705 212.372 626.931 209.848 625.342ZM209.848 625.209C212.372 626.666 218.016 630.374 220.473 631.632C222.93 633.088 225.786 629.976 223.993 627.791C223.262 626.798 221.934 626.202 220.805 625.408L213.833 620.972L213.368 620.641C220.208 611.636 228.708 603.758 238.403 597.733L238.868 597.402C249.029 605.28 258.392 614.483 264.9 625.673C266.959 628.255 267.49 631.764 267.224 635.008C267.158 636.597 267.291 640.636 267.224 642.159C267.357 643.284 265.963 644.344 265.232 644.344L247.302 650.435L246.904 650.567L246.638 650.236L239.2 641.43C237.142 639.577 233.954 634.081 231.032 635.472C229.505 636.266 229.239 638.252 230.368 639.577C234.02 643.88 238.337 648.118 241.657 652.686L241.989 653.149L241.458 653.348L222.598 661.492C219.544 662.882 216.157 664.339 212.637 663.941C201.879 663.412 193.844 651.56 197.43 641.43C199.488 635.803 206.262 629.91 209.848 625.143V625.209Z" fill="black"/>
<path d="M266.295 676.19L266.096 649.243C259.787 653.282 248.431 656.327 240.595 660.432C232.161 664.405 223.794 668.973 214.364 670.761L214.895 670.165C214.497 675.462 216.29 681.023 220.009 684.863C226.649 693.073 241.79 690.557 251.021 690.955C256.533 690.955 262.178 691.219 267.623 691.087L267.092 691.749L265.697 682.745L266.096 683.142C264.17 682.811 261.912 682.877 260.451 681.354C259.322 679.567 260.318 676.654 262.51 676.323C263.771 676.058 265.166 676.19 266.295 676.124V676.19ZM266.428 676.323C264.103 676.654 260.65 676.19 260.65 679.434C260.318 682.48 264.502 682.016 266.56 682.414V682.745L268.221 691.683L268.353 692.345H267.689C256.533 692.676 245.443 692.742 234.353 692.676C222.267 693.007 212.04 681.619 213.7 669.702C231.962 665.531 248.431 654.937 266.295 649.045L266.693 648.912V649.376L266.494 676.389L266.428 676.323Z" fill="black"/>
<path d="M319.221 585.948L319.753 641.232L319.354 640.702L336.82 645.337L335.956 645.933C338.878 627.46 336.886 608.392 329.714 591.178C329.116 589.986 328.784 588.199 327.655 588L319.288 586.014L319.221 585.948ZM319.089 585.815L327.722 587.206C329.647 587.735 329.78 589.589 330.444 590.781C338.612 608.194 340.671 628.056 337.152 646.86L336.421 646.661L319.022 641.762L318.624 641.629C318.557 641.033 319.155 586.345 319.155 585.815H319.089Z" fill="black"/>
<path d="M372.215 661.756C388.551 669.702 404.157 648.449 391.274 635.405C389.547 633.485 385.164 628.387 383.504 626.533C382.906 626.004 381.711 624.15 380.981 624.018L382.176 623.355C381.711 636.597 378.324 650.038 372.215 661.756ZM372.082 661.756C377.129 648.978 380.117 635.67 380.649 622.031L381.778 622.561C383.239 623.223 383.77 624.547 384.766 625.54C386.36 627.46 390.676 632.625 392.336 634.611C405.485 648.316 389.082 670.695 372.148 661.823L372.082 661.756Z" fill="black"/>
<path d="M244.911 594.555L245.11 595.349C253.212 601.308 260.783 609.187 266.826 617.529L265.83 617.86C265.763 607.532 265.498 597.137 265.564 586.808L266.693 587.603C259.654 590.052 252.548 592.304 244.978 594.555H244.911ZM244.778 594.488C251.818 591.509 259.587 588.463 267.158 585.616V586.808C267.158 597.733 266.892 608.657 266.826 619.582C260.716 610.577 253.411 602.301 244.845 595.482L244.712 594.555L244.778 594.488Z" fill="black"/>
<path d="M346.316 671.158C347.179 671.158 348.108 671.158 348.972 671.158C350.765 671.224 351.761 672.218 351.96 674.005C352.159 675.66 351.03 677.183 349.237 677.316C347.245 677.514 345.253 677.514 343.261 677.316C341.601 677.117 340.538 675.859 340.671 674.138C340.804 672.416 341.8 671.357 343.593 671.224C344.456 671.224 345.386 671.224 346.249 671.224L346.316 671.158Z" fill="#ED5B55"/>
<path d="M346.316 671.092C347.577 671.092 348.773 670.893 350.101 671.224C353.089 671.953 353.222 676.653 350.3 677.647C347.445 678.11 345.32 678.11 342.464 677.911C339.144 677.051 339.077 671.622 342.464 670.959C343.859 670.761 345.054 671.092 346.316 671.092ZM346.316 671.224C345.12 671.357 343.726 671.224 342.73 671.754C341.069 672.615 341.003 675.727 342.862 676.256C344.855 676.521 347.843 676.72 349.835 676.521C352.027 675.925 352.093 672.217 349.902 671.423C348.773 671.092 347.445 671.224 346.249 671.158L346.316 671.224Z" fill="black"/>
<path d="M330.578 657.982C331.109 657.982 331.706 657.982 332.238 657.982C334.031 658.115 335.027 659.24 335.093 660.896C335.16 662.485 334.23 663.743 332.636 664.007C331.242 664.272 329.714 664.272 328.32 664.007C326.66 663.743 325.73 662.485 325.863 660.697C325.995 659.108 326.992 658.115 328.652 657.916C329.249 657.916 329.914 657.916 330.511 657.916L330.578 657.982Z" fill="#ED5B55"/>
<path d="M330.577 657.916C337.351 656.989 337.085 665.398 330.445 664.868C323.273 665.861 323.273 656.195 330.577 657.916ZM330.577 658.049C328.652 657.983 326.46 658.711 326.726 661.028C326.593 662.882 328.253 663.478 330.378 663.544C332.238 663.677 334.562 663.478 334.628 661.094C334.96 658.645 332.57 657.784 330.511 658.049H330.577Z" fill="black"/>
<path d="M236.677 676.389C238.271 676.389 239.865 676.323 241.392 676.389C243.384 676.521 244.579 677.779 244.579 679.434C244.579 681.156 243.384 682.48 241.458 682.546C238.138 682.679 234.884 682.679 231.564 682.546C229.638 682.48 228.376 681.09 228.442 679.434C228.442 677.713 229.704 676.521 231.696 676.389C233.357 676.323 235.017 676.389 236.677 676.389Z" fill="#ED5B55"/>
<path d="M236.677 676.256H241.591C246.239 676.256 246.04 683.142 241.325 683.076L236.411 683.208L231.431 683.341C229.438 683.407 227.38 681.421 227.645 679.302C228.177 674.469 233.489 676.256 236.677 676.256ZM236.677 676.389C234.22 676.72 229.372 675.925 229.305 679.368C229.239 680.692 230.169 681.685 231.563 681.685L236.478 681.818C239.466 681.685 244.048 683.076 244.247 679.501C244.446 678.044 243.251 676.654 241.591 676.455L236.677 676.323V676.389Z" fill="black"/>
<path d="M257.994 669.768C256.931 669.768 255.935 669.834 254.873 669.768C253.212 669.569 252.216 668.576 252.15 666.921C252.083 665.199 253.013 663.941 254.74 663.743C256.865 663.544 258.99 663.544 261.115 663.743C262.841 663.875 263.838 665.067 263.838 666.788C263.838 668.51 262.775 669.569 261.048 669.768C260.052 669.9 258.99 669.768 257.927 669.768H257.994Z" fill="#ED5B55"/>
<path d="M257.927 669.834C256.599 669.834 255.404 670.033 254.142 669.768C251.087 669.106 250.954 664.008 254.142 663.279C256.997 663.081 259.255 662.816 262.177 663.014C265.697 663.875 265.498 669.635 261.912 670.033C260.451 670.165 259.322 669.9 257.927 669.834ZM258.06 669.702C259.122 669.569 260.65 669.635 261.712 669.172C263.638 668.444 263.638 665.133 261.712 664.603C259.654 664.272 256.599 664.272 254.408 664.339C252.083 664.67 251.95 668.775 254.208 669.437C255.404 669.768 256.798 669.635 258.06 669.702Z" fill="black"/>
</g>
<defs>
<clipPath id="clip0_1246_1658">
<rect width="1316" height="2564" fill="white"/>
</clipPath>
</defs>
</svg>
