<svg width="280" height="225" viewBox="0 0 280 225" fill="none" xmlns="http://www.w3.org/2000/svg">
<g filter="url(#filter0_d_1329_3532)">
<path d="M61.481 47.0647C62.2148 42.7433 64.8564 39.5644 67.6447 36.4351C71.2647 32.3621 74.6401 27.9911 78.4557 24.1167C86.5761 15.921 96.3598 10.8546 107.513 8.47038C108.1 8.37104 108.687 7.924 109.079 7.47696C110.889 5.34111 113.09 4.04967 115.829 4C120.721 4 125.564 4 130.456 4C133 4 135.103 5.09276 136.864 6.93058C137.207 7.27828 137.745 7.52663 138.234 7.57631C147.675 8.66907 156.383 11.848 164.307 17.1628C165.579 18.0072 165.873 19.0503 165.237 20.0437C164.601 21.0371 163.525 21.0868 162.155 20.3417C158.535 18.4046 154.817 16.5171 151.148 14.6296C150.757 14.4309 150.317 14.3316 149.681 14.1329C150.268 15.8217 150.806 17.3118 151.295 18.8019C154.377 28.6368 155.111 38.6703 153.399 48.9025C153.301 49.3495 153.496 50.0946 153.79 50.2436C158.339 52.3795 162.938 54.4656 167.878 56.7505C169.004 53.2239 170.226 49.8959 171.156 46.419C172.575 41.3525 173.064 36.1371 172.868 30.8223C172.868 30.1766 172.526 29.4315 172.134 28.9348C171.205 27.842 170.178 26.8486 169.15 25.8552C168.025 24.7128 167.878 23.6697 168.759 22.7756C169.591 21.9312 170.716 21.9809 171.694 23.0736C175.118 26.8486 178.543 30.723 181.918 34.5476C183.239 36.0377 184.511 37.6272 185.831 39.167C192.876 47.5117 189.647 59.1347 179.423 62.562C179.276 62.6117 179.13 62.711 179.081 62.711C178.885 64.5488 178.885 66.3867 178.445 68.1251C176.733 75.4268 170.422 80.3939 162.938 80.4435C153.741 80.4435 144.593 80.4435 135.397 80.4435C134.712 80.4435 134.027 80.6919 133.342 80.7912C132.168 80.9899 130.994 81.2879 129.771 81.3376C125.368 81.3873 120.917 81.437 116.514 81.3376C115.193 81.3376 113.921 80.8906 112.601 80.6422C112.063 80.5429 111.524 80.4435 110.986 80.4435C103.453 80.4435 95.8706 80.3442 88.3372 80.4435C78.2111 80.5926 71.3136 72.1982 71.8517 63.5058C71.8517 63.1581 71.5582 62.562 71.3136 62.4627C65.8837 60.5255 62.6551 56.7008 61.5789 50.939C61.5789 50.8893 61.481 50.79 61.4321 50.7403V46.9157L61.481 47.0647ZM138.283 76.6189C138.527 76.6189 138.723 76.7182 138.919 76.7182C147.039 76.7182 155.16 76.8176 163.329 76.7182C168.416 76.6189 172.085 73.9863 174.189 69.2676C175.02 67.3801 175.363 65.3436 175.069 63.6051C172.77 62.8104 170.716 62.2143 168.71 61.4196C166.607 60.5752 164.601 59.5321 162.546 58.638C156.529 56.1048 150.512 53.5219 144.447 51.088C142.783 50.4423 140.973 50.1443 139.114 49.6972C139.114 52.3298 139.114 54.714 139.114 57.0982C139.114 58.3896 138.381 59.1844 137.256 59.1844C136.13 59.1844 135.446 58.3896 135.348 57.0982C135.348 56.7008 135.348 56.3531 135.348 55.9558C135.348 41.7499 135.348 27.5937 135.348 13.3878C135.348 10.0599 133.342 7.97367 130.113 7.924C125.515 7.924 120.917 7.924 116.367 7.924C113.237 7.924 111.182 10.0102 111.182 13.1891C111.182 32.9085 111.182 52.6278 111.182 72.3969C111.182 75.5758 113.237 77.662 116.318 77.7116C120.966 77.7116 125.564 77.7116 130.211 77.7116C133.391 77.7116 135.397 75.5758 135.397 72.2975C135.397 70.112 135.397 67.8768 135.397 65.6913C135.397 64.3502 136.179 63.5058 137.353 63.5554C138.478 63.5554 139.114 64.3502 139.163 65.6913C139.163 66.8834 139.163 68.0258 139.163 69.1682C140.778 69.5159 143.077 68.6219 143.126 71.1054C143.175 73.887 140.729 72.7942 139.261 73.1419C138.968 74.334 138.674 75.4268 138.332 76.6685L138.283 76.6189ZM73.1236 35.7894C71.0201 38.3226 68.8677 40.6571 67.0577 43.1903C64.4651 46.8163 64.7096 51.6841 67.4002 55.2604C70.0417 58.787 74.5911 60.3765 78.6514 58.7374C83.1519 56.9492 87.5545 54.8133 92.1039 52.7768C91.8593 52.3795 91.7126 52.0814 91.468 51.8331C89.4623 49.5482 87.4077 47.2137 85.4021 44.9288C84.5705 43.9851 84.5216 42.8427 85.2553 42.0976C86.038 41.3029 87.1142 41.3029 88.0437 42.1969C88.8753 42.9917 89.7069 43.8361 90.4896 44.7302C92.2507 46.8163 94.0117 48.9025 95.626 50.8397C99.2949 49.5482 102.915 48.2568 106.535 47.015C107.171 46.8163 107.366 46.4686 107.366 45.8726C107.366 43.6871 107.366 41.4519 107.366 39.2663C107.366 38.7696 107.122 38.2233 106.877 37.7266C103.795 32.2131 99.9308 27.2957 95.2347 23.0736C93.7671 21.7325 92.2017 20.4907 90.6853 19.249C84.7662 22.9246 79.9232 27.4447 75.7652 32.8091C77.6241 34.0012 79.3851 35.1437 81.0973 36.3358C82.3202 37.1802 82.6138 38.2233 81.9778 39.2167C81.293 40.2598 80.2168 40.3094 78.9449 39.465C77.086 38.2233 75.1782 36.9815 73.2214 35.7397L73.1236 35.7894ZM107.22 67.1317V50.5416C103.257 52.1808 99.4906 53.7703 95.7239 55.3101C89.1199 57.9923 83.0051 62.0653 75.7652 63.4064C75.7652 63.7044 75.6674 64.1515 75.7163 64.5488C75.7163 65.2442 75.7163 65.9893 75.9119 66.6847C77.086 72.6949 81.88 76.6685 88.0437 76.7182C94.4031 76.7182 100.714 76.7182 107.073 76.7182C107.415 76.7182 107.807 76.7182 108.051 76.6685C107.758 74.7811 107.464 72.9929 107.122 71.1551C104.333 70.8571 103.502 70.4597 103.6 69.1682C103.795 66.7344 105.752 67.3304 107.269 67.1317H107.22ZM139.114 45.6242C142.588 46.568 146.012 47.5614 149.632 48.5548C149.779 47.4124 149.974 46.1706 150.121 44.9785C151.393 34.0509 149.681 23.5703 145.229 13.5368C145.082 13.1891 144.789 12.7421 144.447 12.6427C142.734 12.2454 140.973 11.8977 139.114 11.55V45.6242ZM171.107 58.2903C173.357 59.4327 175.607 59.6811 177.858 59.1347C185.195 57.3962 188.277 48.6045 183.581 42.5943C181.527 39.9617 179.276 37.4285 177.075 34.8953C176.977 34.796 176.83 34.7463 176.635 34.647C176.292 42.942 174.433 50.7403 171.058 58.2903H171.107ZM94.2563 16.9144C94.2563 16.9144 94.3052 17.2621 94.3541 17.4608C99.246 21.3351 103.453 25.9049 107.269 31.2693V12.146C102.817 13.7852 98.5611 15.325 94.3052 16.9144H94.2563Z" fill="#ED5B55"/>
<path d="M1.04892 136.659C1.78269 132.338 4.42428 129.159 7.21263 126.029C10.8326 121.956 14.2079 117.585 18.0236 113.711C26.144 105.515 35.9277 100.449 47.0811 98.0646C47.6681 97.9653 48.2551 97.5183 48.6464 97.0712C50.4564 94.9354 52.6577 93.6439 55.3972 93.5942C60.289 93.5942 65.1319 93.5942 70.0238 93.5942C72.5675 93.5942 74.671 94.687 76.432 96.5248C76.7745 96.8725 77.3126 97.1209 77.8018 97.1706C87.243 98.2633 95.9505 101.442 103.875 106.757C105.147 107.601 105.441 108.645 104.805 109.638C104.169 110.631 103.093 110.681 101.723 109.936C98.1029 107.999 94.3851 106.111 90.7162 104.224C90.3249 104.025 89.8846 103.926 89.2487 103.727C89.8357 105.416 90.3738 106.906 90.863 108.396C93.9448 118.231 94.6786 128.265 92.9664 138.497C92.8686 138.944 93.0643 139.689 93.3578 139.838C97.9072 141.974 102.506 144.06 107.446 146.345C108.571 142.818 109.794 139.49 110.724 136.013C112.142 130.947 112.632 125.731 112.436 120.417C112.436 119.771 112.094 119.026 111.702 118.529C110.773 117.436 109.745 116.443 108.718 115.449C107.593 114.307 107.446 113.264 108.327 112.37C109.158 111.525 110.284 111.575 111.262 112.668C114.686 116.443 118.11 120.317 121.486 124.142C122.807 125.632 124.078 127.221 125.399 128.761C132.444 137.106 129.215 148.729 118.991 152.156C118.844 152.206 118.697 152.305 118.649 152.305C118.453 154.143 118.453 155.981 118.013 157.719C116.3 165.021 109.99 169.988 102.506 170.038C93.3089 170.038 84.1611 170.038 74.9645 170.038C74.2796 170.038 73.5948 170.286 72.9099 170.385C71.7359 170.584 70.5619 170.882 69.3389 170.932C64.9362 170.982 60.4847 171.031 56.082 170.932C54.7612 170.932 53.4894 170.485 52.1686 170.236C51.6305 170.137 51.0924 170.038 50.5543 170.038C43.0208 170.038 35.4385 169.938 27.9051 170.038C17.779 170.187 10.8815 161.792 11.4196 153.1C11.4196 152.752 11.1261 152.156 10.8815 152.057C5.45157 150.12 2.22296 146.295 1.14675 140.533C1.14675 140.484 1.04892 140.384 1 140.335V136.51L1.04892 136.659ZM77.8507 166.213C78.0953 166.213 78.2909 166.312 78.4866 166.312C86.6071 166.312 94.7275 166.412 102.897 166.312C107.984 166.213 111.653 163.581 113.757 158.862C114.588 156.974 114.931 154.938 114.637 153.199C112.338 152.405 110.284 151.809 108.278 151.014C106.174 150.169 104.169 149.126 102.114 148.232C96.0972 145.699 90.0803 143.116 84.0144 140.682C82.3512 140.037 80.5412 139.739 78.6823 139.291C78.6823 141.924 78.6823 144.308 78.6823 146.692C78.6823 147.984 77.9485 148.779 76.8234 148.779C75.6983 148.779 75.0134 147.984 74.9156 146.692C74.9156 146.295 74.9156 145.947 74.9156 145.55C74.9156 131.344 74.9156 117.188 74.9156 102.982C74.9156 99.6541 72.9099 97.5679 69.6813 97.5183C65.083 97.5183 60.4847 97.5183 55.9353 97.5183C52.8045 97.5183 50.7499 99.6044 50.7499 102.783C50.7499 122.503 50.7499 142.222 50.7499 161.991C50.7499 165.17 52.8045 167.256 55.8864 167.306C60.5336 167.306 65.1319 167.306 69.7792 167.306C72.9589 167.306 74.9645 165.17 74.9645 161.892C74.9645 159.706 74.9645 157.471 74.9645 155.286C74.9645 153.944 75.7472 153.1 76.9212 153.15C78.0464 153.15 78.6823 153.944 78.7312 155.286C78.7312 156.478 78.7312 157.62 78.7312 158.762C80.3455 159.11 82.6447 158.216 82.6936 160.7C82.7425 163.481 80.2966 162.388 78.829 162.736C78.5355 163.928 78.242 165.021 77.8996 166.263L77.8507 166.213ZM12.6915 125.384C10.588 127.917 8.43558 130.251 6.62561 132.785C4.03294 136.411 4.27753 141.278 6.96804 144.855C9.60962 148.381 14.159 149.971 18.2192 148.332C22.7197 146.543 27.1224 144.408 31.6718 142.371C31.4272 141.974 31.2804 141.676 31.0359 141.427C29.0302 139.142 26.9756 136.808 24.97 134.523C24.1384 133.579 24.0894 132.437 24.8232 131.692C25.6059 130.897 26.6821 130.897 27.6116 131.791C28.4432 132.586 29.2748 133.43 30.0575 134.324C31.8185 136.411 33.5796 138.497 35.1939 140.434C38.8628 139.142 42.4827 137.851 46.1027 136.609C46.7386 136.411 46.9343 136.063 46.9343 135.467C46.9343 133.281 46.9343 131.046 46.9343 128.861C46.9343 128.364 46.6897 127.818 46.4451 127.321C43.3633 121.807 39.4987 116.89 34.8026 112.668C33.335 111.327 31.7696 110.085 30.2532 108.843C24.334 112.519 19.4911 117.039 15.3331 122.403C17.192 123.595 18.953 124.738 20.6652 125.93C21.8881 126.774 22.1816 127.818 21.5457 128.811C20.8608 129.854 19.7846 129.904 18.5128 129.059C16.6539 127.818 14.746 126.576 12.7893 125.334L12.6915 125.384ZM46.7876 156.726V140.136C42.8252 141.775 39.0585 143.365 35.2917 144.904C28.6878 147.587 22.573 151.66 15.3331 153.001C15.3331 153.299 15.2352 153.746 15.2841 154.143C15.2841 154.838 15.2841 155.584 15.4798 156.279C16.6539 162.289 21.4479 166.263 27.6116 166.312C33.9709 166.312 40.2814 166.312 46.6408 166.312C46.9832 166.312 47.3746 166.312 47.6192 166.263C47.3257 164.375 47.0321 162.587 46.6897 160.749C43.9014 160.451 43.0698 160.054 43.1676 158.762C43.3633 156.329 45.32 156.925 46.8365 156.726H46.7876ZM78.6823 135.218C82.1555 136.162 85.5798 137.156 89.1997 138.149C89.3465 137.007 89.5422 135.765 89.6889 134.573C90.9608 123.645 89.2487 113.165 84.7971 103.131C84.6503 102.783 84.3568 102.336 84.0144 102.237C82.3022 101.84 80.5412 101.492 78.6823 101.144V135.218ZM110.675 147.885C112.925 149.027 115.175 149.275 117.426 148.729C124.763 146.99 127.845 138.199 123.149 132.189C121.094 129.556 118.844 127.023 116.643 124.49C116.545 124.39 116.398 124.341 116.203 124.241C115.86 132.536 114.001 140.335 110.626 147.885H110.675ZM33.8242 106.509C33.8242 106.509 33.8731 106.856 33.922 107.055C38.8139 110.929 43.0208 115.499 46.8365 120.864V101.74C42.3849 103.379 38.129 104.919 33.8731 106.509H33.8242Z" fill="#ED5B55"/>
<path fill-rule="evenodd" clip-rule="evenodd" d="M252.132 6.73754C254.746 8.24944 255.642 11.5979 254.132 14.2166L136.529 218.262C135.02 220.88 131.677 221.777 129.063 220.266C126.448 218.754 125.553 215.405 127.062 212.786L244.665 8.74156C246.175 6.12287 249.517 5.22564 252.132 6.73754Z" fill="#ED5B55"/>
<path d="M273 162.596C273 166.47 272.033 170.112 270.099 173.522C268.243 176.931 265.458 179.798 261.745 182.123C258.109 184.447 253.778 185.842 248.75 186.307V195.721H241.208V186.307C233.936 185.609 228.057 183.324 223.571 179.449C219.084 175.575 216.841 170.461 216.841 164.107H230.997C231.229 167.129 232.196 169.647 233.898 171.662C235.599 173.599 238.036 174.839 241.208 175.381V149.811C236.025 148.493 231.809 147.176 228.56 145.859C225.311 144.464 222.527 142.294 220.206 139.35C217.963 136.405 216.841 132.376 216.841 127.262C216.841 120.831 219.084 115.523 223.571 111.338C228.057 107.077 233.936 104.597 241.208 103.9V94.4851H248.75V103.9C255.557 104.52 261.01 106.689 265.11 110.409C269.287 114.051 271.646 119.087 272.188 125.519H258.032C257.8 123.116 256.872 120.986 255.247 119.126C253.623 117.189 251.457 115.871 248.75 115.174V140.28C253.932 141.52 258.148 142.837 261.397 144.232C264.646 145.549 267.392 147.68 269.635 150.624C271.878 153.491 273 157.482 273 162.596ZM230.301 126.565C230.301 129.742 231.229 132.221 233.085 134.003C235.019 135.786 237.727 137.219 241.208 138.304V114.825C237.881 115.213 235.213 116.414 233.202 118.429C231.268 120.443 230.301 123.155 230.301 126.565ZM248.75 175.381C252.153 174.839 254.822 173.483 256.756 171.313C258.69 169.066 259.656 166.393 259.656 163.293C259.656 160.194 258.69 157.792 256.756 156.087C254.899 154.305 252.231 152.871 248.75 151.787V175.381Z" fill="#ED5B55"/>
</g>
<defs>
<filter id="filter0_d_1329_3532" x="0" y="0" width="280" height="225" filterUnits="userSpaceOnUse" color-interpolation-filters="sRGB">
<feFlood flood-opacity="0" result="BackgroundImageFix"/>
<feColorMatrix in="SourceAlpha" type="matrix" values="0 0 0 0 0 0 0 0 0 0 0 0 0 0 0 0 0 0 127 0" result="hardAlpha"/>
<feOffset dx="3"/>
<feGaussianBlur stdDeviation="2"/>
<feComposite in2="hardAlpha" operator="out"/>
<feColorMatrix type="matrix" values="0 0 0 0 0.929412 0 0 0 0 0.356863 0 0 0 0 0.333333 0 0 0 0.5 0"/>
<feBlend mode="normal" in2="BackgroundImageFix" result="effect1_dropShadow_1329_3532"/>
<feBlend mode="normal" in="SourceGraphic" in2="effect1_dropShadow_1329_3532" result="shape"/>
</filter>
</defs>
</svg>
