<?xml version="1.0" encoding="UTF-8"?><svg id="Layer_1" xmlns="http://www.w3.org/2000/svg" viewBox="0 0 500 500"><defs><style>.cls-1{fill:#f6ede6;}</style></defs><path class="cls-1" d="m356.92,178.59c-1.98,5.44-3.99,10.87-5.88,16.35-.22.63.11,1.57.43,2.25,5.19,10.88,3.15,21.58-5.88,29.42-1.9,1.65-1.96,3.41-1.9,5.55.37,12.36-6.76,22.4-18.49,24.8-4.52.92-7.06,2.78-9.55,6.56-6.91,10.5-21.08,13.3-31.84,6.71-2.45-1.5-4.24-1.67-6.8-.12-8.3,5.04-16.84,4.99-25.14-.05-2.41-1.46-4.13-1.54-6.46.17-6.25,4.58-13.22,4.37-20.52,2.27-7.46,13.12-19.57,20.15-33.25,24.89-14.31,4.96-29.15,6.19-44.14,5.03-13.63-1.05-26.88-4.09-38.67-11.25-5.45-3.31-10.24-7.8-14.96-12.15-1.68-1.54-2.86-2.38-5.22-2.08-12.65,1.62-24.24-6.44-27.2-18.78-.46-1.92-.6-3.91-.9-5.96-2.18-.42-4.47-.65-6.62-1.31-9.13-2.81-14.96-8.96-17.12-18.21-2.17-9.28.5-17.32,7.41-23.88,1.28-1.21,2.76-2.23,4.23-3.21,14.05-9.38,28.13-18.73,42.18-28.12,1.11-.74,2.18-1.62,3.08-2.6,6.83-7.4,14.93-12.93,24.2-16.86,2.95-1.25,5.74-2.86,8.56-4.4,11.57-6.31,20.28-15.57,28.41-25.84,21.96-27.73,44.45-55.06,66.75-82.53,4.42-5.44,10.14-7.61,16.99-5.81,6.96,1.83,10.93,6.6,12.09,13.65.71,4.35-.65,8.25-3.12,11.79-3.15,4.54-6.34,9.05-9.97,14.22,1.19-.55,1.77-.73,2.27-1.06,4.18-2.75,8.33-5.56,12.52-8.3,7.76-5.07,17.35-3.48,22.53,3.71,5.33,7.4,3.85,16.97-3.61,22.79-7.98,6.22-16.02,12.37-24.03,18.56-.54.42-1.07.86-1.87,1.51,6.34-.34,12.22-.89,18.1-.95,26.6-.26,50.98,7.09,73.26,21.58,10.81,7.03,17.52,16.74,19.59,29.55.08.5.37.96.56,1.44v10.65Zm-138.44,38.14c-17.83,16.16-38.96,21.16-61.47,21.16-22.55,0-43.71-5.1-61.37-21.15,0,13.91.1,27.26-.04,40.6-.07,7.01,2.47,12.8,7.27,17.71,5.82,5.93,12.94,9.79,20.66,12.57,16.77,6.04,34,7.06,51.46,4.14,12.05-2.01,23.42-5.95,33.09-13.78,5.34-4.33,9.45-9.58,10.21-16.62.46-4.23.17-8.55.17-12.83.01-10.41,0-20.82,0-31.8Zm9.36-13.37c1.8-.98,3.06-1.64,4.3-2.34,2.9-1.64,5.68-3.56,8.71-4.9,18.17-8.04,35.99-7.02,52.97,3.17,8.52,5.12,17.22,8.04,27.04,5.61,12.32-3.05,21.71-9.83,25.26-22.57,3.52-12.59.57-23.97-8.94-32.93-8.21-7.73-18.49-12.27-29.28-16.66.27,2.47.84,4.54.65,6.54-.58,6.08-1.33,12.16-2.27,18.2-.6,3.83.94,6.96,4.56,8.12,3.3,1.06,6.6-.64,7.95-4.18.52-1.36.81-2.8,1.31-4.17.95-2.6,3.21-3.87,5.63-3.27,2.63.65,4.11,2.91,3.51,5.73-.41,1.92-1.03,3.82-1.75,5.66-2.62,6.72-7.88,10.21-14.97,10.07-6.89-.14-12.82-4.35-15.09-10.71-1.4-3.92-.85-7.79.26-11.67,2.1-7.31,2.11-14.62-.29-21.85-.33-.99-1.38-2.24-2.31-2.44-5.96-1.35-11.97-2.44-18.47-3.71.66,2.32,1.16,3.98,1.6,5.65,2.45,9.17,3.54,18.51,1.53,27.84-1.51,7.01-8.36,11.77-15.55,11.73-7.87-.05-13.81-4.25-15.32-11.25-.54-2.5-.38-5.19-.33-7.78.14-8.02-1.65-15.51-6.06-22.27-.49-.75-1.68-1.8-2.22-1.64-5.41,1.61-10.75,3.45-15.97,5.18,2.52,4.78,5.08,8.87,6.9,13.28,1.83,4.39,3.16,9.03,4.29,13.67,2.01,8.26-2.05,15.8-9.87,19.01-.63.26-1.23.58-2.03.97,4.84,7.25,4.43,15.25,4.24,23.91Zm115.89.53c-.6.43-1.2.79-1.71,1.24-9.52,8.39-20.69,11.12-33.1,9.91-7.49-.73-13.81-4.17-20.2-7.8-16.41-9.32-32.87-9.32-49.23.37-3.22,1.91-6.64,3.46-9.86,5.36-.78.46-1.65,1.6-1.66,2.44-.14,15.34-.13,30.68-.21,46.02-.01,1.82.84,2.29,2.43,2.47,3.96.43,7.66-.13,11.08-2.32,4.96-3.18,9.92-3.24,14.94.02,5.55,3.59,11.18,3.54,16.72-.05,5.01-3.24,9.87-3.13,14.92.02,8.19,5.1,17,2.78,21.47-5.69,2.53-4.79,6.28-7.26,11.63-7.69,8.31-.66,14.05-7.89,13.33-16.25-.19-2.2-.05-4.72.87-6.66,1.12-2.36,3.05-4.42,4.92-6.33,4.65-4.75,5.97-9.63,3.65-15.05Zm-186.77,24.47c.04.29.09.58.13.87,8.92-1.42,17.97-2.3,26.74-4.39,11.18-2.66,21.45-7.56,29.14-16.57,7.3-8.56,7.32-18.65.17-27.34-5.31-6.46-12.24-10.7-19.91-13.64-22.76-8.72-45.79-8.94-68.85-1.31-9.01,2.98-17.21,7.51-23.38,15-7.13,8.67-7.01,18.76.22,27.34,4.04,4.78,9.05,8.28,14.6,11.08,12.94,6.52,26.79,8.87,41.14,8.94Zm-8.89-77.54c8.86.53,17.89.98,26.91,1.7,1.78.14,2.56-.24,3.43-1.68,3.34-5.54,7.85-9.95,13.25-13.51,8.74-5.76,17.97-10.51,27.81-14.09,1.54-.56,3.03-1.41,4.34-2.4,8.96-6.83,17.87-13.72,26.79-20.61,5.12-3.95,10.25-7.89,15.32-11.91,2.11-1.67,3.47-4.11,2.39-6.6-.87-2-2.66-4.03-4.57-5.02-2.46-1.27-4.97.17-7.24,1.68-35.47,23.67-70.97,47.3-106.45,70.95-.82.55-1.59,1.19-1.97,1.48Zm-61.79,41.27c-.72.35-1.09.47-1.41.68-10.67,7.09-21.4,14.1-31.97,21.33-7.62,5.21-9.26,15.31-3.95,22.59,4.84,6.64,14.36,7.65,21.76,2.18,4.69-3.46,9.32-7.03,13.82-10.74.94-.77,1.63-2.37,1.67-3.61.18-5.73.09-11.47.09-17.2,0-4.96,0-9.93,0-15.23Zm84.03-68.45l.31.39c.5-.27,1.03-.5,1.5-.81,13.89-9.25,27.77-18.5,41.64-27.77.6-.4,1.28-.8,1.68-1.37,8.34-11.85,16.76-23.65,24.88-35.66,2.75-4.06-.28-9.56-5.14-10.06-3.02-.31-5.05,1.41-6.84,3.63-13.38,16.55-26.79,33.08-40.19,49.61-5.95,7.34-11.89,14.69-17.84,22.03Zm81.28,1.82c5.08,9,6.84,18.35,6.34,28.23-.2,4,2.37,6.68,6.08,6.91,3.66.23,6.65-2.17,6.97-6.11.79-9.69-.5-19.11-4.32-28.1-.3-.72-1.47-1.53-2.22-1.52-4.12.06-8.25.35-12.85.59Zm-49.26,16.23c1.99,2.92,3.93,5.38,5.46,8.09,1.57,2.79,2.87,5.76,4.04,8.76.9,2.31,1.29,4.81,2.11,7.16,1.07,3.06,4.35,4.75,7.52,4.09,3-.63,5.61-3.88,5.06-6.95-1.77-9.99-5.79-19.01-12.4-27.23-3.93,2.03-7.78,4.02-11.78,6.09Zm-115.76,97.15c-5.58,3.92-10.3,7.16-14.91,10.55-.69.51-1.15,1.69-1.23,2.6-.83,10.02,6.74,16.92,16.14,15.39v-28.55Zm107.75-92.29c-2.89,3.22-5.11,5.68-7.4,8.23,5.41,2.05,10.24,3.88,15.08,5.71.22-.23.44-.46.65-.7-2.62-4.16-5.23-8.32-8.33-13.24Z"/><path class="cls-1" d="m157.04,270.68c-4.38-.19-8-1.93-10.65-5.5-1.79-2.41-1.56-4.92.48-6.69,1.93-1.68,4.64-1.46,6.71.53,2.9,2.8,4.15,2.81,6.99.06,2.05-1.99,4.78-2.23,6.71-.6,2,1.69,2.25,4.35.5,6.7-2.65,3.56-6.27,5.32-10.73,5.5Z"/><path class="cls-1" d="m182.15,260.1c0-1.45-.14-2.93.03-4.36.29-2.52,1.91-3.93,4.37-4.04,2.62-.12,4.56,1.27,4.82,3.88.32,3.08.33,6.25,0,9.33-.28,2.55-2.11,4.02-4.81,3.88-2.66-.15-4.18-1.67-4.41-4.32-.12-1.44-.02-2.91-.02-4.36h.02Z"/><path class="cls-1" d="m132,260.32c0,1.45.13,2.92-.03,4.36-.27,2.5-1.78,3.93-4.29,4.11-2.7.19-4.58-1.26-4.89-3.79-.38-3.07-.34-6.24-.04-9.33.25-2.58,2.13-4.07,4.76-3.97,2.6.1,4.26,1.55,4.48,4.26.11,1.45.02,2.91.02,4.36h-.01Z"/><path class="cls-1" d="m156.11,175.27c9.47.02,17.72,1.4,25.04,6.2,3.95,2.59,7.07,5.91,7.84,10.8,1.07,6.75-2.26,11.48-7.49,15.03-7.44,5.03-15.87,6.6-24.7,6.38-2.66-.07-4.52-2.17-4.47-4.68.05-2.56,2.07-4.35,4.91-4.71,4.22-.53,8.49-.95,12.6-1.98,2.55-.64,5.03-2.06,7.19-3.62,3.64-2.62,3.57-5.65.04-8.42-4.24-3.33-9.31-4.63-14.52-5.22-6.91-.78-13.74-.31-20.29,2.31-1.06.42-2.1.92-3.09,1.49-6.18,3.61-6.28,7.26-.31,11.14.44.28.91.52,1.33.83,2.25,1.68,2.85,4.1,1.59,6.31-1.22,2.12-3.94,3.1-6.26,1.85-5.19-2.81-9.59-6.42-10.41-12.79-.84-6.5,2.49-11.01,7.5-14.43,7.33-5.01,15.7-6.42,23.5-6.49Z"/><path class="cls-1" d="m87.35,310.61v42.37c0,5.88-1.7,10.45-5.1,13.7-3.4,3.26-7.96,4.89-13.66,4.89s-10.42-1.67-13.96-5.02c-3.54-3.34-5.32-8.01-5.32-14.01h12.1c.06,2.59.68,4.61,1.86,6.05,1.18,1.44,2.9,2.16,5.15,2.16s3.86-.69,5.01-2.07c1.15-1.38,1.73-3.29,1.73-5.71v-42.37h12.19Z"/><path class="cls-1" d="m99.5,333.96c1.93-3.75,4.55-6.63,7.87-8.65,3.31-2.02,7.02-3.03,11.11-3.03,3.57,0,6.7.72,9.38,2.16,2.68,1.44,4.83,3.26,6.44,5.45v-6.83h12.19v47.91h-12.19v-7c-1.56,2.25-3.7,4.11-6.44,5.58-2.74,1.47-5.89,2.2-9.47,2.2-4.04,0-7.71-1.04-11.02-3.11-3.32-2.08-5.94-5-7.87-8.78-1.93-3.78-2.9-8.11-2.9-13.01s.96-9.14,2.9-12.88Zm33.07,5.49c-1.15-2.1-2.71-3.72-4.67-4.84-1.96-1.12-4.06-1.69-6.31-1.69s-4.32.55-6.23,1.64c-1.9,1.1-3.45,2.7-4.63,4.8-1.18,2.11-1.77,4.6-1.77,7.48s.59,5.4,1.77,7.57c1.18,2.16,2.74,3.82,4.67,4.97,1.93,1.15,3.99,1.73,6.18,1.73s4.35-.56,6.31-1.69c1.96-1.12,3.51-2.74,4.67-4.84,1.15-2.1,1.73-4.62,1.73-7.56s-.58-5.46-1.73-7.57Z"/><path class="cls-1" d="m175.16,324.49c2.74-1.47,5.87-2.2,9.38-2.2,4.09,0,7.8,1.01,11.11,3.03,3.31,2.02,5.94,4.88,7.87,8.6,1.93,3.72,2.9,8.03,2.9,12.93s-.96,9.24-2.9,13.01c-1.93,3.78-4.55,6.7-7.87,8.78-3.32,2.07-7.02,3.11-11.11,3.11-3.51,0-6.61-.72-9.29-2.16-2.68-1.44-4.86-3.26-6.53-5.45v29.66h-12.1v-70.73h12.1v6.92c1.56-2.19,3.71-4.02,6.44-5.49Zm17.12,14.87c-1.18-2.1-2.74-3.7-4.67-4.8-1.93-1.09-4.02-1.64-6.27-1.64s-4.25.56-6.18,1.69c-1.93,1.13-3.49,2.75-4.67,4.89-1.18,2.13-1.77,4.64-1.77,7.52s.59,5.39,1.77,7.52c1.18,2.13,2.74,3.76,4.67,4.89,1.93,1.12,3.99,1.69,6.18,1.69s4.34-.58,6.27-1.73c1.93-1.15,3.49-2.8,4.67-4.93,1.18-2.13,1.77-4.67,1.77-7.61s-.59-5.38-1.77-7.48Z"/><path class="cls-1" d="m222.33,368.68c-3.69-2.05-6.59-4.94-8.69-8.69-2.11-3.75-3.16-8.07-3.16-12.97s1.08-9.22,3.24-12.97c2.16-3.75,5.12-6.64,8.86-8.69,3.75-2.04,7.93-3.07,12.54-3.07s8.79,1.02,12.54,3.07c3.75,2.05,6.7,4.94,8.86,8.69,2.16,3.75,3.24,8.07,3.24,12.97s-1.11,9.22-3.33,12.97c-2.22,3.75-5.22,6.64-8.99,8.69-3.78,2.04-8,3.07-12.67,3.07s-8.76-1.02-12.45-3.07Zm18.63-9.08c1.93-1.07,3.47-2.67,4.63-4.8,1.15-2.13,1.73-4.73,1.73-7.78,0-4.55-1.2-8.06-3.59-10.51-2.39-2.45-5.32-3.67-8.78-3.67s-6.36,1.22-8.69,3.67c-2.33,2.45-3.5,5.95-3.5,10.51s1.14,8.06,3.42,10.5c2.28,2.45,5.14,3.68,8.6,3.68,2.19,0,4.25-.53,6.18-1.6Z"/><path class="cls-1" d="m307.32,327.77c3.52,3.6,5.27,8.63,5.27,15.09v28.1h-12.11v-26.46c0-3.8-.95-6.73-2.85-8.77-1.9-2.05-4.49-3.07-7.78-3.07s-5.98,1.02-7.91,3.07c-1.93,2.05-2.9,4.97-2.9,8.77v26.46h-12.1v-47.91h12.1v5.97c1.61-2.07,3.68-3.7,6.18-4.88,2.51-1.18,5.26-1.77,8.26-1.77,5.71,0,10.32,1.8,13.84,5.4Z"/><path class="cls-1" d="m366.55,350.64h-35.02c.29,3.46,1.5,6.17,3.63,8.13,2.13,1.96,4.76,2.94,7.87,2.94,4.5,0,7.7-1.93,9.6-5.79h13.06c-1.38,4.61-4.04,8.4-7.96,11.37-3.92,2.97-8.73,4.45-14.44,4.45-4.61,0-8.75-1.02-12.41-3.07-3.66-2.05-6.52-4.94-8.56-8.69-2.05-3.75-3.07-8.07-3.07-12.97s1.01-9.31,3.03-13.06c2.02-3.75,4.84-6.63,8.47-8.65,3.63-2.02,7.81-3.03,12.54-3.03s8.63.98,12.24,2.94c3.6,1.96,6.4,4.74,8.39,8.34,1.99,3.6,2.98,7.74,2.98,12.41,0,1.73-.12,3.29-.35,4.67Zm-12.19-8.13c-.06-3.11-1.18-5.61-3.37-7.48-2.19-1.87-4.87-2.81-8.04-2.81-3,0-5.52.91-7.57,2.72-2.05,1.82-3.3,4.34-3.76,7.57h22.74Z"/><path class="cls-1" d="m381.77,369.63c-3.11-1.41-5.58-3.33-7.39-5.75-1.82-2.42-2.81-5.1-2.98-8.04h12.19c.23,1.85,1.14,3.37,2.72,4.58,1.59,1.21,3.56,1.82,5.92,1.82s4.11-.46,5.4-1.38c1.3-.92,1.95-2.1,1.95-3.54,0-1.56-.79-2.73-2.38-3.5-1.59-.78-4.11-1.63-7.57-2.55-3.58-.87-6.5-1.76-8.78-2.68-2.28-.92-4.24-2.34-5.88-4.24-1.64-1.9-2.46-4.47-2.46-7.7,0-2.65.76-5.07,2.29-7.26,1.53-2.19,3.72-3.92,6.57-5.19,2.85-1.27,6.21-1.9,10.07-1.9,5.71,0,10.26,1.43,13.66,4.28,3.4,2.85,5.28,6.7,5.62,11.54h-11.59c-.17-1.9-.96-3.42-2.38-4.54-1.41-1.12-3.3-1.69-5.66-1.69-2.19,0-3.88.4-5.06,1.21-1.18.81-1.77,1.93-1.77,3.37,0,1.61.81,2.84,2.42,3.67,1.61.84,4.12,1.69,7.52,2.55,3.46.86,6.31,1.76,8.56,2.68,2.25.92,4.19,2.35,5.84,4.28s2.49,4.48,2.55,7.65c0,2.77-.76,5.25-2.29,7.43-1.53,2.19-3.72,3.91-6.57,5.15-2.85,1.24-6.18,1.86-9.99,1.86s-7.44-.71-10.55-2.12Z"/><path class="cls-1" d="m463.57,350.64h-35.02c.29,3.46,1.5,6.17,3.63,8.13,2.13,1.96,4.76,2.94,7.87,2.94,4.5,0,7.7-1.93,9.6-5.79h13.06c-1.38,4.61-4.04,8.4-7.96,11.37-3.92,2.97-8.73,4.45-14.44,4.45-4.61,0-8.75-1.02-12.41-3.07-3.66-2.05-6.52-4.94-8.56-8.69-2.05-3.75-3.07-8.07-3.07-12.97s1.01-9.31,3.03-13.06c2.02-3.75,4.84-6.63,8.47-8.65,3.63-2.02,7.81-3.03,12.54-3.03s8.63.98,12.24,2.94c3.6,1.96,6.4,4.74,8.39,8.34,1.99,3.6,2.98,7.74,2.98,12.41,0,1.73-.12,3.29-.35,4.67Zm-12.19-8.13c-.06-3.11-1.18-5.61-3.37-7.48-2.19-1.87-4.87-2.81-8.04-2.81-3,0-5.52.91-7.57,2.72-2.05,1.82-3.3,4.34-3.76,7.57h22.74Z"/><path class="cls-1" d="m76.45,408.17c-1.44,0-2.54.27-3.29.82s-1.27,1.48-1.56,2.81h7v16h-7.18v32.77h-19.19v-32.77h-5.19v-16h5.19c.12-6.34,2.12-11.26,6.01-14.74,3.89-3.49,9.35-5.23,16.38-5.23.81,0,2.13.06,3.98.17v16.34c-1.04-.11-1.76-.17-2.16-.17Z"/><path class="cls-1" d="m92.02,458.15c-3.92-2.02-6.99-4.92-9.21-8.69-2.22-3.78-3.33-8.2-3.33-13.27s1.11-9.5,3.33-13.27c2.22-3.78,5.29-6.67,9.21-8.69,3.92-2.02,8.33-3.03,13.23-3.03s9.31,1.01,13.23,3.03c3.92,2.02,6.99,4.92,9.21,8.69,2.22,3.78,3.33,8.2,3.33,13.27s-1.11,9.5-3.33,13.27c-2.22,3.78-5.29,6.67-9.21,8.69-3.92,2.02-8.33,3.03-13.23,3.03s-9.31-1.01-13.23-3.03Zm17.73-15.69c1.21-1.41,1.81-3.5,1.81-6.27s-.6-4.85-1.81-6.27c-1.21-1.41-2.71-2.12-4.5-2.12s-3.29.71-4.5,2.12c-1.21,1.41-1.82,3.5-1.82,6.27s.59,4.86,1.77,6.27c1.18,1.41,2.69,2.12,4.54,2.12s3.29-.7,4.5-2.12Z"/><path class="cls-1" d="m145.28,458.15c-3.92-2.02-6.99-4.92-9.21-8.69-2.22-3.78-3.33-8.2-3.33-13.27s1.11-9.5,3.33-13.27c2.22-3.78,5.29-6.67,9.21-8.69,3.92-2.02,8.33-3.03,13.23-3.03s9.31,1.01,13.23,3.03c3.92,2.02,6.99,4.92,9.21,8.69,2.22,3.78,3.33,8.2,3.33,13.27s-1.11,9.5-3.33,13.27c-2.22,3.78-5.29,6.67-9.21,8.69-3.92,2.02-8.33,3.03-13.23,3.03s-9.31-1.01-13.23-3.03Zm17.73-15.69c1.21-1.41,1.81-3.5,1.81-6.27s-.6-4.85-1.81-6.27c-1.21-1.41-2.71-2.12-4.5-2.12s-3.29.71-4.5,2.12c-1.21,1.41-1.82,3.5-1.82,6.27s.59,4.86,1.77,6.27c1.18,1.41,2.69,2.12,4.54,2.12s3.29-.7,4.5-2.12Z"/><path class="cls-1" d="m188.65,422.83c1.76-3.78,4.16-6.66,7.22-8.65,3.06-1.99,6.48-2.98,10.29-2.98,3.17,0,5.89.65,8.17,1.95,2.28,1.3,4.02,3.07,5.23,5.32v-21.88h19.2v63.99h-19.2v-6.66c-1.21,2.25-2.95,4.02-5.23,5.32-2.28,1.3-5,1.95-8.17,1.95-3.81,0-7.23-1-10.29-2.98-3.06-1.99-5.46-4.87-7.22-8.65-1.76-3.78-2.64-8.23-2.64-13.36s.88-9.58,2.64-13.36Zm29.01,7.31c-1.33-1.44-3.03-2.16-5.1-2.16s-3.78.72-5.1,2.16c-1.33,1.44-1.99,3.46-1.99,6.05s.66,4.61,1.99,6.05c1.33,1.44,3.03,2.16,5.1,2.16s3.78-.72,5.1-2.16c1.33-1.44,1.99-3.46,1.99-6.05s-.66-4.61-1.99-6.05Z"/></svg>