<svg width="24" height="28" viewBox="0 0 24 28" fill="none" xmlns="http://www.w3.org/2000/svg">
<path d="M11.9073 23.9997C10.3412 22.3868 8.74428 20.8712 7.29627 19.2276C5.81232 17.543 4.59537 15.6689 4.14351 13.3955C3.26033 8.93571 6.51065 4.51174 11.0395 4.05091C14.2128 3.72833 16.8008 4.87017 18.5825 7.47641C20.4311 10.1799 20.4003 13.0781 18.9112 15.9659C17.5504 18.6131 15.4811 20.6869 13.3296 22.6889C12.8881 23.0985 12.4413 23.503 11.9022 23.9946L11.9073 23.9997ZM12.0459 22.0233C13.571 20.82 16.164 17.9065 17.1448 16.2322C17.5042 15.6229 17.8637 14.9982 18.0947 14.3325C18.9779 11.8031 18.6339 9.44262 16.8059 7.44569C14.7212 5.17226 11.2603 4.7524 8.64158 6.32946C5.93555 7.96796 4.75968 11.1118 5.78664 14.0919C6.44389 16.0069 7.67624 17.5788 9.00615 19.0535C9.95609 20.1031 11.0241 21.035 12.0459 22.0233Z" fill="black" fill-opacity="0.5"/>
<path d="M10.3055 11.9826C10.2952 11.0507 11.0809 10.2519 12.0103 10.2519C12.8472 10.2519 13.6739 11.0609 13.6996 11.8904C13.7253 12.7814 12.8986 13.6467 12 13.6569C11.1271 13.6672 10.3158 12.8633 10.3055 11.9826Z" fill="black" fill-opacity="0.5"/>
</svg>
