<svg width="28" height="28" viewBox="0 0 28 28" fill="none" xmlns="http://www.w3.org/2000/svg">
<circle cx="14" cy="14" r="14" fill="#ED5B55"/>
<path d="M7 13.25C6.58579 13.25 6.25 13.5858 6.25 14C6.25 14.4142 6.58579 14.75 7 14.75L7 13.25ZM21.5303 14.5303C21.8232 14.2374 21.8232 13.7626 21.5303 13.4697L16.7574 8.6967C16.4645 8.40381 15.9896 8.40381 15.6967 8.6967C15.4038 8.98959 15.4038 9.46447 15.6967 9.75736L19.9393 14L15.6967 18.2426C15.4038 18.5355 15.4038 19.0104 15.6967 19.3033C15.9896 19.5962 16.4645 19.5962 16.7574 19.3033L21.5303 14.5303ZM7 14.75L21 14.75L21 13.25L7 13.25L7 14.75Z" fill="white"/>
</svg>
