<svg width="105" height="105" viewBox="0 0 105 105" fill="none" xmlns="http://www.w3.org/2000/svg">
<path d="M78.7375 34.7365C78.2526 36.0944 77.7589 37.4434 77.2917 38.8013C77.2388 38.9622 77.3182 39.1944 77.3975 39.3642C78.667 42.0711 78.1733 44.7333 75.9517 46.6809C75.4845 47.0918 75.4668 47.5296 75.4845 48.0656C75.5726 51.1388 73.8271 53.6402 70.9443 54.2298C69.8335 54.4621 69.2075 54.9177 68.5992 55.8647C66.9066 58.4733 63.4243 59.1701 60.7884 57.5353C60.1889 57.1601 59.7481 57.1243 59.1222 57.5085C57.0857 58.7592 54.9875 58.7503 52.9511 57.4995C52.3604 57.1333 51.9372 57.1154 51.3642 57.5442C49.8303 58.6788 48.12 58.6341 46.3304 58.107C44.4967 61.3678 41.5257 63.1188 38.1669 64.2981C34.6581 65.5309 31.0172 65.8347 27.3321 65.5488C23.9909 65.2897 20.7379 64.5304 17.8374 62.7526C16.4974 61.9307 15.3249 60.8139 14.17 59.733C13.7557 59.3488 13.4648 59.1433 12.8917 59.2148C9.78855 59.6168 6.94102 57.6157 6.21812 54.5425C6.10352 54.069 6.06825 53.5687 5.99773 53.0595C5.45996 52.9523 4.90456 52.8987 4.37561 52.729C2.13637 52.0321 0.708201 50.5045 0.179249 48.1996C-0.349704 45.8947 0.302671 43.8936 1.99532 42.2587C2.31269 41.9549 2.67414 41.7048 3.03559 41.4636C6.4826 39.1319 9.93842 36.8091 13.3854 34.4685C13.6587 34.2809 13.9232 34.0665 14.1436 33.8253C15.8186 31.9849 17.811 30.6092 20.0855 29.6354C20.8084 29.3227 21.496 28.9207 22.1837 28.5455C25.0224 26.9731 27.1646 24.6772 29.157 22.1222C34.5435 15.2254 40.0623 8.42681 45.5369 1.60148C46.6213 0.243558 48.023 -0.292463 49.7068 0.154221C51.4171 0.609839 52.3869 1.79802 52.669 3.54902C52.8453 4.63 52.5103 5.60377 51.902 6.47927C51.1262 7.60492 50.3416 8.73056 49.4512 10.017C49.7421 9.883 49.8832 9.83834 50.0066 9.75793C51.0292 9.07004 52.0519 8.37321 53.0745 7.69425C54.9787 6.4346 57.3326 6.82768 58.6021 8.61442C59.9068 10.4548 59.5453 12.8311 57.7116 14.2784C55.7545 15.8239 53.7798 17.3516 51.8138 18.8971C51.6816 19.0043 51.5494 19.1115 51.3554 19.2723C52.907 19.183 54.3528 19.049 55.7986 19.04C62.3223 18.9775 68.3083 20.8 73.7742 24.4092C76.4277 26.1602 78.0763 28.5723 78.5788 31.7616C78.5965 31.8867 78.667 32.0028 78.7199 32.1189V34.7633L78.7375 34.7365ZM44.7611 44.2241C40.3885 48.2443 35.2047 49.486 29.6772 49.486C24.1408 49.486 18.9482 48.2175 14.6197 44.2241C14.6197 47.6814 14.6461 51.0048 14.6108 54.3192C14.5932 56.0612 15.2191 57.4996 16.3916 58.7235C17.8198 60.1975 19.5654 61.1624 21.4608 61.8503C25.5778 63.3511 29.8006 63.6013 34.0939 62.8776C37.0561 62.3773 39.8419 61.3946 42.2133 59.4471C43.5269 58.375 44.5319 57.0618 44.717 55.3108C44.8317 54.2566 44.7611 53.1846 44.7611 52.1215C44.7611 49.5307 44.7611 46.9399 44.7611 44.2152V44.2241ZM47.0533 40.9008C47.494 40.6596 47.8026 40.4898 48.1112 40.3201C48.8252 39.9091 49.5041 39.4356 50.2446 39.1051C54.7054 37.1039 59.0781 37.3541 63.2392 39.8913C65.3286 41.1598 67.462 41.8924 69.8776 41.2849C72.9014 40.5256 75.2023 38.8371 76.0751 35.6746C76.9391 32.5388 76.2162 29.7158 73.88 27.4824C71.8611 25.5616 69.3398 24.436 66.695 23.3371C66.7567 23.9536 66.8978 24.4628 66.8537 24.9631C66.7127 26.4729 66.5275 27.9916 66.2983 29.4924C66.1484 30.4484 66.5275 31.2256 67.4179 31.5115C68.229 31.7795 69.04 31.3507 69.3662 30.4752C69.4897 30.1357 69.5602 29.7783 69.6836 29.4388C69.9216 28.7956 70.4682 28.474 71.0677 28.6259C71.7113 28.7867 72.0727 29.3495 71.9316 30.0553C71.8347 30.5377 71.676 31.0022 71.4997 31.4668C70.8561 33.1374 69.569 34.004 67.8235 33.9682C66.1308 33.9325 64.6762 32.8872 64.1208 31.306C63.777 30.3322 63.9092 29.3674 64.1825 28.4025C64.7026 26.589 64.7026 24.7665 64.112 22.9709C64.0326 22.7207 63.777 22.417 63.5478 22.3634C62.0843 22.0328 60.6121 21.7559 59.0164 21.4432C59.1751 22.0239 59.2985 22.4348 59.4131 22.8458C60.0126 25.1239 60.2859 27.4466 59.7922 29.7694C59.4219 31.5115 57.7381 32.6996 55.9749 32.6907C54.0442 32.6818 52.5896 31.6365 52.2194 29.8945C52.0871 29.2691 52.1224 28.608 52.14 27.9559C52.1753 25.9636 51.7345 24.0965 50.6501 22.417C50.5267 22.2294 50.2358 21.9703 50.1035 22.006C48.7724 22.408 47.4676 22.8637 46.1893 23.2925C46.8064 24.4806 47.4323 25.4991 47.8819 26.5979C48.3316 27.6878 48.6577 28.8403 48.931 29.9927C49.4247 32.0475 48.4285 33.9236 46.5067 34.7187C46.3568 34.7812 46.2069 34.8616 46.0042 34.9599C47.1943 36.7645 47.0885 38.7567 47.0444 40.9097L47.0533 40.9008ZM75.4933 41.0348C75.3434 41.142 75.2023 41.2313 75.0701 41.3474C72.7339 43.429 69.9922 44.108 66.9507 43.8131C65.117 43.6345 63.5654 42.7768 61.9962 41.8745C57.9673 39.5607 53.9296 39.5607 49.9184 41.9639C49.125 42.4374 48.2875 42.8215 47.494 43.295C47.3001 43.4111 47.0885 43.697 47.0885 43.9025C47.0533 47.7172 47.0621 51.5318 47.0356 55.3465C47.0356 55.8022 47.2384 55.9183 47.6351 55.963C48.6048 56.0702 49.5129 55.9362 50.3592 55.3823C51.5758 54.5961 52.7924 54.5782 54.0266 55.3823C55.3843 56.2756 56.7683 56.2667 58.126 55.3733C59.3514 54.5693 60.5504 54.5961 61.7846 55.3733C63.7946 56.6419 65.9545 56.0612 67.0565 53.9618C67.6736 52.7736 68.5993 52.1572 69.9128 52.05C71.9493 51.8892 73.3598 50.0846 73.1835 48.012C73.1394 47.467 73.1747 46.8417 73.3951 46.3592C73.6684 45.7696 74.1444 45.2604 74.6029 44.7869C75.7401 43.6077 76.0663 42.3927 75.5021 41.0437L75.4933 41.0348ZM29.6595 47.1186C29.6683 47.1901 29.6772 47.2615 29.6948 47.333C31.8811 46.9846 34.1027 46.7613 36.2538 46.2431C38.9955 45.582 41.5169 44.367 43.4035 42.1247C45.1931 39.9985 45.2019 37.4881 43.4476 35.3261C42.1428 33.7181 40.4414 32.6639 38.5636 31.9313C32.9743 29.7605 27.3321 29.7069 21.6635 31.6097C19.4507 32.3512 17.4407 33.4769 15.9244 35.344C14.17 37.497 14.2053 40.0074 15.9773 42.1425C16.9647 43.3307 18.1989 44.2062 19.5565 44.8941C22.7303 46.5201 26.1332 47.1007 29.6507 47.1186H29.6595ZM27.482 27.8397C29.6595 27.9737 31.8723 28.0809 34.0851 28.2596C34.5259 28.2953 34.711 28.1971 34.9314 27.8397C35.7513 26.4639 36.8621 25.3651 38.1845 24.4806C40.3267 23.0513 42.5924 21.8631 45.008 20.9786C45.3871 20.8357 45.7485 20.6302 46.0747 20.3801C48.2698 18.6827 50.465 16.9674 52.6513 15.2522C53.9032 14.2694 55.1639 13.2867 56.4069 12.2862C56.927 11.8663 57.262 11.2677 56.9887 10.6424C56.7772 10.1421 56.3364 9.6418 55.8691 9.39165C55.2696 9.07897 54.6525 9.43632 54.0971 9.81154C45.3959 15.6988 36.6858 21.5772 27.9757 27.4556C27.7729 27.5896 27.5878 27.7504 27.4908 27.8218L27.482 27.8397ZM12.3187 38.1045C12.1424 38.1939 12.0542 38.2207 11.9749 38.2743C9.35657 40.0342 6.72063 41.7763 4.12876 43.5809C2.2598 44.8763 1.85426 47.3866 3.15901 49.2002C4.34916 50.8529 6.68536 51.103 8.50143 49.7451C9.65631 48.8875 10.7847 47.9941 11.8955 47.0739C12.1248 46.8863 12.2923 46.4843 12.3011 46.1716C12.3452 44.7512 12.3187 43.3218 12.3187 41.8924C12.3187 40.6596 12.3187 39.4267 12.3187 38.1045ZM32.939 21.0858L33.0184 21.1841C33.1418 21.1216 33.274 21.059 33.3886 20.9786C36.8004 18.6827 40.2033 16.3778 43.6062 14.0729C43.7561 13.9746 43.9236 13.8764 44.0206 13.7334C46.0659 10.7853 48.1376 7.85506 50.1212 4.86227C50.7912 3.85277 50.0507 2.48591 48.8605 2.36084C48.12 2.28044 47.6175 2.70926 47.1767 3.26314C43.8972 7.38157 40.6 11.4911 37.3117 15.6006C35.8483 17.423 34.3937 19.2544 32.9302 21.0769L32.939 21.0858ZM52.8894 21.5415C54.1412 23.7838 54.5644 26.1066 54.441 28.5633C54.3881 29.555 55.0228 30.225 55.9308 30.2786C56.8301 30.3322 57.5618 29.7426 57.6411 28.7599C57.8351 26.3478 57.5177 24.0072 56.5832 21.7737C56.5127 21.5951 56.2218 21.3896 56.0366 21.3985C55.0228 21.4164 54.009 21.4879 52.8805 21.5504L52.8894 21.5415ZM40.8028 25.5795C41.2877 26.3031 41.7637 26.9195 42.1428 27.5896C42.5307 28.2864 42.8481 29.019 43.1302 29.7694C43.3506 30.3411 43.4476 30.9665 43.6503 31.5472C43.9148 32.3066 44.717 32.7264 45.4928 32.5656C46.2334 32.4138 46.8681 31.6008 46.7359 30.8414C46.3039 28.3579 45.3165 26.1155 43.6944 24.0697C42.7247 24.5789 41.7814 25.0703 40.8028 25.5795ZM12.3981 49.7183C11.0316 50.6921 9.86789 51.4961 8.73946 52.3448C8.57196 52.4699 8.45735 52.7647 8.43972 52.988C8.23696 55.4805 10.0971 57.1958 12.3981 56.8117V49.7094V49.7183ZM38.8369 26.7677C38.1316 27.5717 37.585 28.1792 37.0208 28.8135C38.352 29.3227 39.5333 29.7783 40.7235 30.2339C40.7764 30.1803 40.8292 30.1178 40.8821 30.0642C40.2386 29.0279 39.595 27.9916 38.8369 26.7677Z" fill="#F3EDE6"/>
<path d="M29.686 57.6335C28.6105 57.5889 27.7201 57.1511 27.0765 56.2667C26.6357 55.6681 26.6974 55.0428 27.1911 54.605C27.6672 54.1851 28.3284 54.2387 28.8397 54.739C29.5538 55.4358 29.8535 55.4358 30.5588 54.7569C31.0613 54.2655 31.7313 54.203 32.2074 54.605C32.701 55.0249 32.7539 55.686 32.3308 56.2667C31.6784 57.1511 30.7968 57.5889 29.6948 57.6335H29.686Z" fill="#F3EDE6"/>
<path d="M35.8483 54.9981C35.8483 54.6408 35.8131 54.2745 35.8483 53.9171C35.9189 53.2918 36.3156 52.9434 36.9239 52.9166C37.5674 52.8898 38.0435 53.2293 38.1052 53.8814C38.1845 54.6497 38.1845 55.4359 38.1052 56.2042C38.0347 56.8385 37.5851 57.2047 36.9239 57.169C36.2715 57.1333 35.9012 56.7491 35.8395 56.097C35.8131 55.7396 35.8395 55.3733 35.8395 55.016L35.8483 54.9981Z" fill="#F3EDE6"/>
<path d="M23.5413 55.0607C23.5413 55.418 23.5766 55.7843 23.5413 56.1417C23.4708 56.767 23.1005 57.1154 22.4922 57.1601C21.8311 57.2048 21.3726 56.8474 21.2933 56.2221C21.2051 55.4627 21.2139 54.6676 21.2845 53.8993C21.3462 53.2561 21.8046 52.8898 22.457 52.9077C23.0917 52.9345 23.5061 53.2918 23.559 53.9708C23.5854 54.3281 23.559 54.6944 23.559 55.0518L23.5413 55.0607Z" fill="#F3EDE6"/>
<path d="M29.4568 33.9057C31.7842 33.9057 33.803 34.2541 35.6015 35.4512C36.5712 36.0945 37.3382 36.9164 37.5233 38.1403C37.7878 39.8198 36.9679 40.999 35.6808 41.8746C33.8559 43.1253 31.7842 43.5183 29.6155 43.4647C28.9631 43.4469 28.5047 42.9198 28.5223 42.3034C28.5311 41.6691 29.0336 41.2224 29.7301 41.1331C30.7615 40.999 31.8106 40.9008 32.8244 40.6417C33.4504 40.4809 34.0587 40.1325 34.5876 39.7394C35.478 39.0872 35.4604 38.3368 34.5964 37.6489C33.5562 36.8181 32.3131 36.4965 31.0348 36.3535C29.3422 36.157 27.6672 36.2731 26.0539 36.9253C25.7894 37.0325 25.5337 37.1576 25.2957 37.3005C23.7794 38.1939 23.7529 39.1051 25.2164 40.0699C25.3221 40.1414 25.4367 40.195 25.5425 40.2754C26.0979 40.6953 26.239 41.2939 25.9304 41.8477C25.6307 42.3748 24.9607 42.616 24.3965 42.3034C23.1182 41.6065 22.0426 40.7042 21.8399 39.123C21.6371 37.506 22.4482 36.3893 23.6824 35.5316C25.4808 34.2898 27.5349 33.9325 29.448 33.9146L29.4568 33.9057Z" fill="#F3EDE6"/>
<path d="M12.5832 67.5589V78.0917C12.5832 79.5569 12.1689 80.6914 11.3313 81.4955C10.4938 82.3084 9.38304 82.7105 7.98132 82.7105C6.57959 82.7105 5.42471 82.2906 4.55194 81.4597C3.67917 80.6289 3.24719 79.4675 3.24719 77.9756H6.21814C6.23577 78.6188 6.38564 79.1191 6.67657 79.4854C6.96749 79.8427 7.39065 80.0214 7.93724 80.0214C8.48382 80.0214 8.88054 79.8517 9.17146 79.5033C9.45357 79.1548 9.59462 78.6903 9.59462 78.0828V67.55H12.5832V67.5589Z" fill="#F3EDE6"/>
<path d="M15.563 73.3659C16.039 72.4367 16.6826 71.7131 17.4937 71.2128C18.3047 70.7125 19.2128 70.4624 20.2178 70.4624C21.0905 70.4624 21.8663 70.6411 22.5187 70.9984C23.1799 71.3558 23.7 71.8114 24.0968 72.3563V70.6589H27.0853V82.5675H24.0968V80.8255C23.7177 81.3883 23.1887 81.8439 22.5187 82.2102C21.8487 82.5765 21.0729 82.7552 20.1913 82.7552C19.2039 82.7552 18.2959 82.4961 17.4849 81.9779C16.6738 81.4598 16.0302 80.7361 15.5542 79.7981C15.0781 78.8601 14.8401 77.7791 14.8401 76.5641C14.8401 75.3491 15.0781 74.295 15.5542 73.3569L15.563 73.3659ZM23.6824 74.7327C23.4003 74.2056 23.0212 73.8125 22.5363 73.5267C22.0515 73.2497 21.5402 73.1068 20.9848 73.1068C20.4294 73.1068 19.9268 73.2408 19.4596 73.5177C18.9924 73.7947 18.6133 74.1878 18.3224 74.7148C18.0314 75.2419 17.8904 75.8583 17.8904 76.573C17.8904 77.2877 18.0314 77.9131 18.3224 78.458C18.6133 78.9941 18.9924 79.405 19.4684 79.6909C19.9445 79.9768 20.447 80.1197 20.9848 80.1197C21.5225 80.1197 22.0515 79.9768 22.5363 79.6998C23.0212 79.4229 23.4003 79.0209 23.6824 78.4938C23.9645 77.9667 24.1056 77.3413 24.1056 76.6088C24.1056 75.8762 23.9645 75.2509 23.6824 74.7238V74.7327Z" fill="#F3EDE6"/>
<path d="M34.1292 71.0163C34.7992 70.65 35.5662 70.4713 36.4302 70.4713C37.4352 70.4713 38.3432 70.7215 39.1543 71.2217C39.9653 71.722 40.6089 72.4367 41.0849 73.3569C41.561 74.2771 41.799 75.3491 41.799 76.573C41.799 77.7969 41.561 78.869 41.0849 79.807C40.6089 80.7451 39.9653 81.4776 39.1543 81.9868C38.3432 82.505 37.4352 82.7641 36.4302 82.7641C35.5662 82.7641 34.808 82.5854 34.1468 82.228C33.4857 81.8707 32.9567 81.4151 32.5424 80.8701V88.2493H29.5714V70.6589H32.5424V72.3831C32.9214 71.8382 33.4504 71.3825 34.1204 71.0163H34.1292ZM38.3344 74.7148C38.0435 74.1877 37.6644 73.7946 37.1883 73.5177C36.7123 73.2497 36.2009 73.1067 35.6544 73.1067C35.1078 73.1067 34.6141 73.2497 34.138 73.5266C33.662 73.8036 33.2829 74.2145 32.992 74.7416C32.701 75.2687 32.56 75.8941 32.56 76.6088C32.56 77.3234 32.701 77.9488 32.992 78.4759C33.2829 79.003 33.662 79.4139 34.138 79.6909C34.6141 79.9678 35.1166 80.1108 35.6544 80.1108C36.1921 80.1108 36.7211 79.9678 37.1883 79.6819C37.6644 79.3961 38.0435 78.9851 38.3344 78.458C38.6253 77.9309 38.7664 77.2966 38.7664 76.5641C38.7664 75.8315 38.6253 75.224 38.3344 74.7059V74.7148Z" fill="#F3EDE6"/>
<path d="M45.7045 82.0047C44.7965 81.4955 44.0912 80.7719 43.5711 79.8427C43.0509 78.9136 42.7953 77.8327 42.7953 76.6177C42.7953 75.4027 43.0598 74.3217 43.5887 73.3926C44.1177 72.4635 44.8406 71.7399 45.7662 71.2307C46.6831 70.7215 47.7145 70.4713 48.843 70.4713C49.9714 70.4713 51.0029 70.7304 51.9197 71.2307C52.8366 71.7399 53.5683 72.4635 54.0972 73.3926C54.6262 74.3217 54.8907 75.4027 54.8907 76.6177C54.8907 77.8327 54.6174 78.9136 54.0708 79.8427C53.5242 80.7719 52.7925 81.4955 51.8668 82.0047C50.9412 82.5139 49.9009 82.7641 48.7548 82.7641C47.6088 82.7641 46.6037 82.5139 45.6957 82.0047H45.7045ZM50.28 79.7445C50.756 79.4765 51.1351 79.0834 51.4172 78.5474C51.6993 78.0203 51.8404 77.3681 51.8404 76.6088C51.8404 75.4742 51.5494 74.6076 50.9588 74.0001C50.3681 73.3926 49.654 73.0889 48.8077 73.0889C47.9614 73.0889 47.2473 73.3926 46.6743 74.0001C46.1012 74.6076 45.8103 75.4831 45.8103 76.6088C45.8103 77.7344 46.0924 78.6099 46.6478 79.2174C47.2032 79.8249 47.9085 80.1286 48.7548 80.1286C49.2926 80.1286 49.7951 79.9946 50.2711 79.7266L50.28 79.7445Z" fill="#F3EDE6"/>
<path d="M66.5628 71.8292C67.4268 72.7226 67.8588 73.9733 67.8588 75.5814V82.5675H64.8878V75.9834C64.8878 75.0364 64.6586 74.3128 64.1914 73.8036C63.7241 73.2944 63.0894 73.0442 62.2783 73.0442C61.4673 73.0442 60.8149 73.2944 60.3388 73.8036C59.8628 74.3128 59.6248 75.0364 59.6248 75.9834V82.5675H56.6538V70.6589H59.6248V72.1419C60.0215 71.6238 60.524 71.2218 61.1411 70.9269C61.7582 70.6321 62.4282 70.4892 63.1687 70.4892C64.5705 70.4892 65.6989 70.9359 66.5628 71.8292Z" fill="#F3EDE6"/>
<path d="M81.1002 77.52H72.5047C72.5753 78.3776 72.875 79.0566 73.3951 79.539C73.9153 80.0303 74.5588 80.2715 75.3258 80.2715C76.4278 80.2715 77.2124 79.7891 77.6797 78.8332H80.8798C80.536 79.9767 79.8924 80.9237 78.9315 81.6652C77.9706 82.4067 76.7893 82.773 75.3875 82.773C74.2591 82.773 73.2365 82.5228 72.3461 82.0136C71.4468 81.5044 70.7504 80.7808 70.2479 79.8517C69.7454 78.9226 69.4985 77.8416 69.4985 76.6266C69.4985 75.4116 69.7454 74.3128 70.2391 73.3837C70.7328 72.4546 71.4292 71.7309 72.3196 71.2307C73.21 70.7304 74.2327 70.4802 75.3964 70.4802C76.56 70.4802 77.5122 70.7214 78.4026 71.2128C79.2842 71.7041 79.9718 72.392 80.4567 73.2854C80.9415 74.1788 81.1884 75.2061 81.1884 76.3675C81.1884 76.7963 81.1619 77.1805 81.1002 77.5289V77.52ZM78.1116 75.501C78.094 74.7237 77.8207 74.1073 77.283 73.6428C76.7452 73.1782 76.084 72.9459 75.3082 72.9459C74.5677 72.9459 73.9505 73.1693 73.448 73.6249C72.9455 74.0805 72.637 74.7059 72.5224 75.5099H78.1028L78.1116 75.501Z" fill="#F3EDE6"/>
<path d="M84.8382 82.237C84.0712 81.8886 83.4717 81.4062 83.0221 80.8076C82.5725 80.2091 82.3345 79.539 82.2904 78.8065H85.279C85.3319 79.2621 85.5611 79.6462 85.949 79.95C86.3369 80.2537 86.8218 80.4056 87.4036 80.4056C87.9855 80.4056 88.4086 80.2895 88.726 80.0572C89.0434 79.8249 89.2021 79.5301 89.2021 79.1727C89.2021 78.7886 89.0081 78.4938 88.6202 78.2972C88.2323 78.1007 87.6152 77.8952 86.7601 77.663C85.8785 77.4485 85.1644 77.2252 84.609 76.9929C84.0536 76.7606 83.5687 76.4122 83.1632 75.9387C82.7577 75.4653 82.5549 74.831 82.5549 74.0269C82.5549 73.3658 82.74 72.7673 83.1191 72.2223C83.4982 71.6774 84.036 71.2486 84.7324 70.9359C85.4289 70.6232 86.2576 70.4624 87.2009 70.4624C88.6026 70.4624 89.7222 70.8197 90.5509 71.5255C91.3796 72.2313 91.8468 73.1961 91.9262 74.3932H89.0786C89.0346 73.9197 88.8406 73.5445 88.4968 73.2676C88.153 72.9906 87.6857 72.8477 87.1039 72.8477C86.5661 72.8477 86.1518 72.946 85.8608 73.1514C85.5699 73.3569 85.4289 73.6339 85.4289 73.9912C85.4289 74.3932 85.6228 74.697 86.0195 74.9024C86.4162 75.1079 87.0334 75.3223 87.862 75.5367C88.7084 75.7511 89.4136 75.9745 89.9602 76.2068C90.5156 76.439 90.9917 76.7874 91.3884 77.2699C91.7851 77.7523 91.9967 78.3866 92.0143 79.1727C92.0143 79.8606 91.8292 80.4771 91.4501 81.022C91.071 81.567 90.5333 81.9958 89.8368 82.2995C89.1403 82.6033 88.3205 82.7641 87.386 82.7641C86.4515 82.7641 85.5611 82.5854 84.7941 82.237H84.8382Z" fill="#F3EDE6"/>
<path d="M104.912 77.52H96.3164C96.3869 78.3776 96.6867 79.0566 97.2068 79.539C97.7269 80.0303 98.3705 80.2715 99.1375 80.2715C100.239 80.2715 101.024 79.7891 101.491 78.8332H104.691C104.348 79.9767 103.704 80.9237 102.743 81.6652C101.782 82.4067 100.601 82.773 99.1992 82.773C98.0708 82.773 97.0481 82.5228 96.1577 82.0136C95.2585 81.5044 94.562 80.7808 94.0595 79.8517C93.557 78.9226 93.3102 77.8416 93.3102 76.6266C93.3102 75.4116 93.557 74.3128 94.0507 73.3837C94.5444 72.4546 95.2409 71.7309 96.1313 71.2307C97.0217 70.7304 98.0443 70.4802 99.208 70.4802C100.372 70.4802 101.324 70.7214 102.214 71.2128C103.096 71.7041 103.783 72.392 104.268 73.2854C104.753 74.1788 105 75.2061 105 76.3675C105 76.7963 104.974 77.1805 104.912 77.5289V77.52ZM101.923 75.501C101.906 74.7237 101.632 74.1073 101.095 73.6428C100.557 73.1782 99.8956 72.9459 99.1198 72.9459C98.3793 72.9459 97.7622 73.1693 97.2597 73.6249C96.7572 74.0805 96.4486 74.7059 96.334 75.5099H101.914L101.923 75.501Z" fill="#F3EDE6"/>
<path d="M9.91204 91.8228C9.55941 91.8228 9.28612 91.8943 9.1098 92.0283C8.93348 92.1623 8.80124 92.3946 8.73071 92.7251H10.4498V96.7006H8.68664V104.848H3.97896V96.7006H2.70947V92.7251H3.97896C4.00541 91.1528 4.4991 89.9289 5.45121 89.0623C6.40332 88.1957 7.74334 87.758 9.47125 87.758C9.6652 87.758 9.99139 87.7759 10.4498 87.8027V91.8675C10.1942 91.8407 10.0178 91.8228 9.92086 91.8228H9.91204Z" fill="#F3EDE6"/>
<path d="M13.7293 104.25C12.7684 103.749 12.0102 103.026 11.4725 102.088C10.9259 101.15 10.6526 100.051 10.6526 98.7911C10.6526 97.5314 10.9259 96.4326 11.4725 95.4945C12.019 94.5565 12.7684 93.8329 13.7293 93.3326C14.6903 92.8323 15.7746 92.5822 16.9736 92.5822C18.1725 92.5822 19.2569 92.8323 20.2178 93.3326C21.1787 93.8329 21.9369 94.5565 22.4747 95.4945C23.0213 96.4326 23.2946 97.5314 23.2946 98.7911C23.2946 100.051 23.0213 101.15 22.4747 102.088C21.9281 103.026 21.1787 103.749 20.2178 104.25C19.2569 104.75 18.1725 105 16.9736 105C15.7746 105 14.6903 104.75 13.7293 104.25ZM18.0756 100.346C18.3753 99.9971 18.5252 99.47 18.5252 98.7821C18.5252 98.0942 18.3753 97.5761 18.0756 97.2187C17.7758 96.8703 17.4144 96.6916 16.9736 96.6916C16.5328 96.6916 16.1713 96.8703 15.8716 97.2187C15.5718 97.5671 15.422 98.0942 15.422 98.7821C15.422 99.47 15.563 99.9882 15.854 100.346C16.1449 100.694 16.5151 100.873 16.9648 100.873C17.4144 100.873 17.767 100.694 18.0667 100.346H18.0756Z" fill="#F3EDE6"/>
<path d="M26.8033 104.25C25.8424 103.749 25.0842 103.026 24.5464 102.088C23.9999 101.15 23.7266 100.051 23.7266 98.7911C23.7266 97.5314 23.9999 96.4326 24.5464 95.4945C25.093 94.5565 25.8424 93.8329 26.8033 93.3326C27.7642 92.8323 28.8486 92.5822 30.0475 92.5822C31.2465 92.5822 32.3309 92.8323 33.2918 93.3326C34.2527 93.8329 35.0109 94.5565 35.5487 95.4945C36.0952 96.4326 36.3685 97.5314 36.3685 98.7911C36.3685 100.051 36.0952 101.15 35.5487 102.088C35.0021 103.026 34.2527 103.749 33.2918 104.25C32.3309 104.75 31.2465 105 30.0475 105C28.8486 105 27.7642 104.75 26.8033 104.25ZM31.1495 100.346C31.4493 99.9971 31.5991 99.47 31.5991 98.7821C31.5991 98.0942 31.4493 97.5761 31.1495 97.2187C30.8498 96.8703 30.4883 96.6916 30.0475 96.6916C29.6068 96.6916 29.2453 96.8703 28.9456 97.2187C28.6458 97.5671 28.496 98.0942 28.496 98.7821C28.496 99.47 28.637 99.9882 28.9279 100.346C29.2189 100.694 29.5891 100.873 30.0387 100.873C30.4883 100.873 30.841 100.694 31.1407 100.346H31.1495Z" fill="#F3EDE6"/>
<path d="M37.444 95.4678C37.876 94.5297 38.4666 93.8151 39.216 93.3148C39.9653 92.8234 40.8028 92.5733 41.7373 92.5733C42.5131 92.5733 43.1831 92.7341 43.7385 93.0557C44.2939 93.3773 44.7259 93.815 45.0256 94.3779V88.9373H49.7333V104.848H45.0256V103.195C44.7259 103.758 44.3027 104.196 43.7385 104.518C43.1831 104.839 42.5131 105 41.7373 105C40.8028 105 39.9653 104.75 39.216 104.259C38.4666 103.767 37.876 103.044 37.444 102.106C37.012 101.167 36.8004 100.06 36.8004 98.7822C36.8004 97.5047 37.012 96.3969 37.444 95.4588V95.4678ZM44.5672 97.2813C44.241 96.924 43.8267 96.7453 43.3153 96.7453C42.804 96.7453 42.3897 96.924 42.0635 97.2813C41.7373 97.6387 41.5786 98.139 41.5786 98.7822C41.5786 99.4254 41.7373 99.9257 42.0635 100.292C42.3897 100.649 42.804 100.828 43.3153 100.828C43.8267 100.828 44.241 100.649 44.5672 100.292C44.8934 99.9346 45.0521 99.4343 45.0521 98.7822C45.0521 98.13 44.8934 97.6387 44.5672 97.2813Z" fill="#F3EDE6"/>
</svg>
